<?xml version="1.0" encoding="UTF-8"?>
<svg version="1.1" xmlns="http://www.w3.org/2000/svg" width="500" height="500">
<path d="M0 0 C3.77266824 1.91405491 7.34340859 4.09508995 10.90994263 6.3677063 C13.36037239 7.9286158 15.83028327 9.45743914 18.29948425 10.98841858 C19.59178251 11.78990279 20.88312455 12.59293071 22.17353821 13.39744568 C28.89507167 17.58144333 35.72052063 21.57967908 42.5625 25.5625 C44.97703538 26.97184708 47.39082995 28.38246113 49.8046875 29.79296875 C50.39928772 30.14018982 50.99388794 30.48741089 51.60650635 30.84515381 C110.67715538 65.35431075 110.67715538 65.35431075 113 70 C113.375 72.8125 113.375 72.8125 113 76 C108.87282727 81.13107961 103.4361915 83.77570508 97.6875 86.8125 C96.70563721 87.33948486 95.72377441 87.86646973 94.7121582 88.40942383 C88.46018992 91.74778418 82.16263279 94.98559781 75.8034668 98.11450195 C68.11136197 101.90228839 60.56055462 105.95772327 53 110 C52.98541748 110.91813477 52.97083496 111.83626953 52.95581055 112.78222656 C52.89466485 116.19687909 52.82049783 119.61073672 52.73754883 123.02490234 C52.70434645 124.50103138 52.67629983 125.97728594 52.65356445 127.45361328 C52.61993049 129.57899332 52.56761481 131.70322804 52.51171875 133.828125 C52.48553467 135.1059082 52.45935059 136.38369141 52.43237305 137.70019531 C51.97131586 141.21891296 51.6584249 142.67023906 49 145 C46.24658203 145.75341797 46.24658203 145.75341797 42.8828125 146.1171875 C41.00190918 146.33713379 41.00190918 146.33713379 39.08300781 146.56152344 C38.41628052 146.63222046 37.74955322 146.70291748 37.06262207 146.77575684 C34.9920699 147.00086214 32.92782346 147.25723434 30.86230469 147.52441406 C27.2692887 147.98901834 23.67395498 148.42972582 20.07666016 148.85986328 C18.60492885 149.03709772 17.13357022 149.21745372 15.66259766 149.40087891 C13.48158753 149.67272055 11.29959605 149.93496342 9.1171875 150.1953125 C7.84472168 150.35016113 6.57225586 150.50500977 5.26123047 150.66455078 C-4.07842107 151.54304128 -13.25282646 150.94649676 -22.53125 149.7578125 C-24.08966614 149.56516312 -24.08966614 149.56516312 -25.67956543 149.36862183 C-27.85128462 149.09816875 -30.022551 148.82405579 -32.19335938 148.54638672 C-35.51824272 148.12267521 -38.84482953 147.71493925 -42.171875 147.30859375 C-44.29178584 147.04261475 -46.4115821 146.77572061 -48.53125 146.5078125 C-49.52290161 146.3868924 -50.51455322 146.26597229 -51.53625488 146.14138794 C-52.45821655 146.02141449 -53.38017822 145.90144104 -54.33007812 145.77783203 C-55.13771606 145.6756839 -55.945354 145.57353577 -56.77746582 145.46829224 C-59.11618919 144.97551871 -60.91923651 144.15893307 -63 143 C-63.029729 141.62279785 -63.029729 141.62279785 -63.06005859 140.21777344 C-63.13826955 136.80328175 -63.22496584 133.38922298 -63.31738281 129.97509766 C-63.35560666 128.49894464 -63.39047103 127.02270057 -63.421875 125.54638672 C-63.46766986 123.42121906 -63.52563837 121.29667458 -63.5859375 119.171875 C-63.6173584 117.8940918 -63.6487793 116.61630859 -63.68115234 115.29980469 C-64.0571775 111.3285269 -64.0571775 111.3285269 -66 108 C-68.41466524 106.34070872 -68.41466524 106.34070872 -71.36328125 104.93359375 C-72.46849121 104.3705957 -73.57370117 103.80759766 -74.71240234 103.22753906 C-75.91234293 102.63067444 -77.11237747 102.0339987 -78.3125 101.4375 C-79.53398712 100.81991206 -80.75484902 100.20108606 -81.97509766 99.58105469 C-84.45114875 98.32367159 -86.92965593 97.0713272 -89.40966797 95.82177734 C-95.47111944 92.75790511 -101.46334562 89.56094233 -107.4621582 86.37670898 C-111.24867094 84.38140012 -114.96930418 82.46867459 -119 81 C-119.05406122 82.93719378 -119.09282025 84.87481921 -119.125 86.8125 C-119.14820313 87.89144531 -119.17140625 88.97039062 -119.1953125 90.08203125 C-119.23023717 93.19402868 -119.23023717 93.19402868 -117 96 C-116.79183594 98.87784505 -116.69597759 101.6565984 -116.69921875 104.53515625 C-116.69493362 105.36961777 -116.6906485 106.20407928 -116.68623352 107.06382751 C-116.68049367 108.82647799 -116.67998743 110.58915216 -116.68432617 112.35180664 C-116.68749228 115.05590876 -116.66400236 117.75892332 -116.63867188 120.46289062 C-116.63639954 122.17447778 -116.63569508 123.88606789 -116.63671875 125.59765625 C-116.627509 126.40912613 -116.61829926 127.22059601 -116.60881042 128.05665588 C-116.62768555 130.33227539 -116.62768555 130.33227539 -117 134 C-120.46923881 136.31282587 -121.92205575 136.42478586 -126 136 C-127.66259766 134.94824219 -127.66259766 134.94824219 -129 133 C-129.29857647 130.42285314 -129.42059276 128.09232171 -129.3984375 125.515625 C-129.40130768 124.78180603 -129.40417786 124.04798706 -129.40713501 123.29193115 C-129.40917572 121.73855824 -129.40364527 120.18515964 -129.39111328 118.63183594 C-129.37515011 116.27218907 -129.39091241 113.91427894 -129.41015625 111.5546875 C-129.40817202 110.04166293 -129.40432464 108.52863942 -129.3984375 107.015625 C-129.40451019 106.31745667 -129.41058289 105.61928833 -129.4168396 104.89996338 C-129.34699198 99.9475513 -127.99393021 96.47658156 -126 92 C-125.58719378 89.10167951 -125.58719378 89.10167951 -125.6640625 86.2421875 C-125.65117187 85.20449219 -125.63828125 84.16679687 -125.625 83.09765625 C-125.625 80.9413921 -125.63286921 78.7851142 -125.6484375 76.62890625 C-125.53153359 68.80608606 -125.53153359 68.80608606 -123.109375 65.1328125 C-118.75163279 62.14370792 -114.26066262 59.53293564 -109.625 57 C-107.5428806 55.84260648 -105.46085183 54.68504991 -103.37890625 53.52734375 C-101.7858667 52.64731689 -101.7858667 52.64731689 -100.16064453 51.74951172 C-95.2793061 49.04754423 -90.41974655 46.30748037 -85.5625 43.5625 C-84.61560303 43.02802246 -83.66870605 42.49354492 -82.69311523 41.94287109 C-74.8248949 37.4910186 -67.01187711 32.94788743 -59.20922852 28.38232422 C-49.4895682 22.6951128 -39.74778254 17.04741413 -29.9765625 11.44921875 C-26.31750278 9.35014703 -22.68669318 7.21699617 -19.0859375 5.01953125 C-18.36212891 4.58680908 -17.63832031 4.15408691 -16.89257812 3.70825195 C-15.60748664 2.9386588 -14.33147634 2.15354039 -13.06835938 1.34838867 C-8.56451721 -1.31138609 -4.86144174 -1.68862526 0 0 Z " fill="#313F96" transform="translate(256,97)"/>
<path d="M0 0 C8.99347536 -0.21981927 16.27173685 0.10232762 23.05078125 6.47265625 C28.14689539 12.12320873 30.15077029 17.60684494 30.17578125 25.16015625 C29.63526889 32.06931425 27.16785874 37.33658771 22.17578125 42.16015625 C12.22594776 50.16063461 -3.19249697 48.93516253 -15.2890625 49.54296875 C-73.14777406 52.45538449 -130.48994933 61.16181126 -187.38085938 71.8269043 C-188.36119141 72.00906494 -189.34152344 72.19122559 -190.3515625 72.37890625 C-191.54833618 72.60416992 -191.54833618 72.60416992 -192.76928711 72.83398438 C-195.48568611 73.26514857 -198.08338307 73.37653801 -200.82421875 73.16015625 C-202.81233941 71.17203559 -202.2768165 67.66909527 -202.38671875 64.97265625 C-202.51240234 63.00232422 -202.51240234 63.00232422 -202.640625 60.9921875 C-201.6362731 56.27798074 -200.38537081 55.21984089 -196.47485352 52.65014648 C-190.96357326 49.55211357 -185.26425752 46.89439515 -179.51171875 44.28515625 C-178.15002107 43.66132511 -176.78845 43.03721754 -175.42700195 42.4128418 C-172.75298803 41.19009486 -170.07558192 39.97530424 -167.39453125 38.76806641 C-165.29564545 37.82282147 -163.19848502 36.87369877 -161.10546875 35.91552734 C-111.20753018 13.12641393 -54.49142929 2.28207212 0 0 Z " fill="#313E96" transform="translate(456.82421875,286.83984375)"/>
<path d="M0 0 C0.93852814 0.42054657 1.87705627 0.84109314 2.84402466 1.27438354 C5.53308185 2.48369949 8.21665074 3.70434532 10.8984375 4.9296875 C11.70557693 5.29291611 12.51271637 5.65614471 13.34431458 6.03038025 C18.19936792 8.27110181 22.72597443 10.52633343 25.9609375 14.953125 C26.90704613 18.04745677 26.57053233 20.66967672 26.25 23.875 C26.13914063 25.04546875 26.02828125 26.2159375 25.9140625 27.421875 C25.81867188 28.31390625 25.72328125 29.2059375 25.625 30.125 C21.64597806 31.65108691 18.0704155 30.62321161 14.05859375 29.75390625 C12.46809516 29.42703112 10.8775147 29.10055421 9.28686523 28.77441406 C8.01490799 28.50908875 8.01490799 28.50908875 6.71725464 28.23840332 C-28.16198792 21.00041219 -63.49491864 15.50534284 -98.89355469 11.51757812 C-102.28756452 11.13485948 -105.67874321 10.73181223 -109.0703125 10.328125 C-126.91347782 8.28242819 -144.79843065 7.20168053 -162.7265625 6.21459961 C-192.80224375 4.52011419 -192.80224375 4.52011419 -201.6875 -4.125 C-205.33481462 -10.06877198 -207.59263446 -16.87694703 -206.375 -23.875 C-204.11490929 -30.77117423 -201.05790323 -36.62163345 -194.5 -40.125 C-145.99926682 -64.08082772 -43.76348411 -19.67285446 0 0 Z " fill="#313E96" transform="translate(219.375,329.875)"/>
<path d="M0 0 C3.99728798 3.60730866 7.21471202 6.80117909 7.765625 12.36328125 C7.87128583 17.46141633 7.52374966 20.96933383 4.5625 25.3125 C-0.48804608 30.39557778 -5.71031737 32.01496416 -12.5 34 C-14.75871739 34.69236731 -17.01649563 35.38780417 -19.2734375 36.0859375 C-20.4500293 36.4478418 -21.62662109 36.80974609 -22.83886719 37.18261719 C-33.79325376 40.62202703 -44.61084259 44.49399288 -55.4375 48.3125 C-56.66662109 48.74433594 -57.89574219 49.17617188 -59.16210938 49.62109375 C-80.41094254 57.12330096 -101.0513009 65.68081072 -121.51953125 75.1015625 C-122.43460449 75.52099121 -123.34967773 75.94041992 -124.29248047 76.37255859 C-125.94562703 77.13427502 -127.59483017 77.90464609 -129.23876953 78.68603516 C-133.70115298 80.75392052 -137.52982205 81.87281344 -142.4375 82.3125 C-144.7990963 78.62250578 -145.02169761 75.62095736 -144.4375 71.3125 C-140.94567969 65.32462562 -134.88229484 61.37553422 -129.4375 57.3125 C-128.50164062 56.57257813 -127.56578125 55.83265625 -126.6015625 55.0703125 C-103.28115436 36.68419727 -31.76464455 -15.59355278 0 0 Z " fill="#313E95" transform="translate(399.4375,246.6875)"/>
<path d="M0 0 C3.06089683 1.54894856 6.08357465 3.16080959 9.10620117 4.78344727 C10.31330948 5.40173023 11.5216608 6.017592 12.73120117 6.63110352 C33.24584697 17.13913675 52.19040256 30.4656011 70.10620117 44.90844727 C70.78320068 45.45299561 71.4602002 45.99754395 72.15771484 46.55859375 C73.09127808 47.32345093 73.09127808 47.32345093 74.04370117 48.10375977 C74.58897461 48.54993652 75.13424805 48.99611328 75.69604492 49.45581055 C78.37002193 51.97331175 79.0902372 53.56394259 79.35620117 57.22094727 C79.1300735 60.44326658 78.81296557 62.11662789 77.10620117 64.78344727 C72.05477927 65.13420052 68.84152317 64.06826842 64.28588867 61.92407227 C63.63787796 61.62357971 62.98986725 61.32308716 62.32221985 61.01348877 C60.92940052 60.36649505 59.53887751 59.71453899 58.15048218 59.05810547 C54.45315195 57.3116744 50.7371274 55.6057059 47.02416992 53.89282227 C46.27265152 53.54485596 45.52113312 53.19688965 44.74684143 52.83837891 C27.89584812 45.04634873 10.88590338 37.63802998 -6.75610352 31.8190918 C-10.67321638 30.52618853 -14.58408338 29.21496851 -18.49536133 27.90454102 C-23.9123899 26.09149271 -29.33065866 24.28227842 -34.7522583 22.48294067 C-36.22411527 21.99407491 -37.69559381 21.50406826 -39.16668701 21.01290894 C-43.03886018 19.72170385 -46.91679109 18.45378707 -50.80688477 17.2175293 C-51.61503632 16.95718399 -52.42318787 16.69683868 -53.25582886 16.42860413 C-54.79339485 15.9336113 -56.33325435 15.44566204 -57.87576294 14.96629333 C-63.6417058 13.09648742 -68.53549057 11.04729436 -71.76879883 5.65844727 C-73.82842065 -0.0422917 -73.66746514 -5.89555379 -71.76879883 -11.59155273 C-57.40223795 -31.70473797 -16.07327993 -7.8396495 0 0 Z " fill="#313E95" transform="translate(165.893798828125,264.216552734375)"/>
<path d="M0 0 C5.61 0 11.22 0 17 0 C18.32 8.58 19.64 17.16 21 26 C22.32 17.42 23.64 8.84 25 0 C30.61 0 36.22 0 42 0 C42 17.82 42 35.64 42 54 C38.7 54 35.4 54 32 54 C31.67 44.1 31.34 34.2 31 24 C29.35 33.9 27.7 43.8 26 54 C22.7 54 19.4 54 16 54 C15.35361884 50.45843253 14.70787576 46.9167507 14.0625 43.375 C13.88009766 42.37597656 13.69769531 41.37695312 13.50976562 40.34765625 C13.33251953 39.37441406 13.15527344 38.40117187 12.97265625 37.3984375 C12.81031494 36.50817871 12.64797363 35.61791992 12.48071289 34.70068359 C11.96516284 31.80428202 11.48364981 28.90189883 11 26 C10.67 35.24 10.34 44.48 10 54 C6.7 54 3.4 54 0 54 C0 36.18 0 18.36 0 0 Z " fill="#F6F8FB" transform="translate(209,152)"/>
<path d="M0 0 C2.97 0 5.94 0 9 0 C9 18.48 9 36.96 9 56 C5.04 56 1.08 56 -3 56 C-3 42.14 -3 28.28 -3 14 C-4.98 14.99 -4.98 14.99 -7 16 C-7.99 16 -8.98 16 -10 16 C-10.49039286 12.87374553 -10.69778546 10.10358309 -10 7 C-7.61556865 4.71355898 -4.93078305 3.46539153 -2 2 C-1.34 1.34 -0.68 0.68 0 0 Z " fill="#F9FBFC" transform="translate(273,150)"/>
<path d="M0 0 C0.66 0.33 1.32 0.66 2 1 C0.29456041 4.41087917 -3.72014068 5.45115522 -7.140625 6.91796875 C-9.50613101 8.09646725 -11.18205136 9.06924309 -13 11 C-13.97318965 14.68979392 -14.10655108 18.19745818 -14 22 C-12.83404297 22.21462891 -12.83404297 22.21462891 -11.64453125 22.43359375 C-9.12213994 22.97384004 -7.24195912 23.75446715 -5 25 C-4.67 24.34 -4.34 23.68 -4 23 C-4 23.66 -4 24.32 -4 25 C-2.02 24.67 -0.04 24.34 2 24 C2 25.32 2 26.64 2 28 C2.886875 28.268125 3.77375 28.53625 4.6875 28.8125 C7.7909666 29.9250635 10.31110685 31.10195778 13 33 C13 33.66 13 34.32 13 35 C14.98 35.66 16.96 36.32 19 37 C19 37.66 19 38.32 19 39 C13.39604783 37.39626735 8.53424339 34.75925783 3.4375 32 C-3.61158106 28.13760995 -3.61158106 28.13760995 -11 25 C-11.05406122 26.93719378 -11.09282025 28.87481921 -11.125 30.8125 C-11.14820313 31.89144531 -11.17140625 32.97039062 -11.1953125 34.08203125 C-11.23023717 37.19402868 -11.23023717 37.19402868 -9 40 C-8.79183594 42.87784505 -8.69597759 45.6565984 -8.69921875 48.53515625 C-8.69493362 49.36961777 -8.6906485 50.20407928 -8.68623352 51.06382751 C-8.68049367 52.82647799 -8.67998743 54.58915216 -8.68432617 56.35180664 C-8.68749228 59.05590876 -8.66400236 61.75892332 -8.63867188 64.46289062 C-8.63639954 66.17447778 -8.63569508 67.88606789 -8.63671875 69.59765625 C-8.627509 70.40912613 -8.61829926 71.22059601 -8.60881042 72.05665588 C-8.62768555 74.33227539 -8.62768555 74.33227539 -9 78 C-12.46923881 80.31282587 -13.92205575 80.42478586 -18 80 C-19.66259766 78.94824219 -19.66259766 78.94824219 -21 77 C-21.29857647 74.42285314 -21.42059276 72.09232171 -21.3984375 69.515625 C-21.40130768 68.78180603 -21.40417786 68.04798706 -21.40713501 67.29193115 C-21.40917572 65.73855824 -21.40364527 64.18515964 -21.39111328 62.63183594 C-21.37515011 60.27218907 -21.39091241 57.91427894 -21.41015625 55.5546875 C-21.40817202 54.04166293 -21.40432464 52.52863942 -21.3984375 51.015625 C-21.40451019 50.31745667 -21.41058289 49.61928833 -21.4168396 48.89996338 C-21.34699198 43.9475513 -19.99393021 40.47658156 -18 36 C-17.58719378 33.10167951 -17.58719378 33.10167951 -17.6640625 30.2421875 C-17.65117187 29.20449219 -17.63828125 28.16679687 -17.625 27.09765625 C-17.625 24.9413921 -17.63286921 22.7851142 -17.6484375 20.62890625 C-17.53053823 12.73947978 -17.53053823 12.73947978 -14.84765625 9 C-11.88430115 6.918741 -8.94759513 4.9398501 -5.8125 3.125 C-4.76707031 2.50882813 -3.72164062 1.89265625 -2.64453125 1.2578125 C-1.77183594 0.84273437 -0.89914063 0.42765625 0 0 Z " fill="#333985" transform="translate(148,153)"/>
<path d="M0 0 C3.99728798 3.60730866 7.21471202 6.80117909 7.765625 12.36328125 C7.87128583 17.46141633 7.52374966 20.96933383 4.5625 25.3125 C-0.48804608 30.39557778 -5.71031737 32.01496416 -12.5 34 C-14.75871739 34.69236731 -17.01649563 35.38780417 -19.2734375 36.0859375 C-20.4500293 36.4478418 -21.62662109 36.80974609 -22.83886719 37.18261719 C-39.22029585 42.3259857 -55.3741806 48.23394892 -71.5 54.125 C-72.71776123 54.56884033 -73.93552246 55.01268066 -75.19018555 55.4699707 C-81.90990492 57.94208807 -88.53492595 60.55872706 -95.10717773 63.40112305 C-97.4375 64.3125 -97.4375 64.3125 -99.4375 64.3125 C-99.4375 63.6525 -99.4375 62.9925 -99.4375 62.3125 C-96.20748215 59.21168286 -92.67694191 58.46871143 -88.4375 57.3125 C-87.4475 56.6525 -86.4575 55.9925 -85.4375 55.3125 C-82.25 55.1875 -82.25 55.1875 -79.4375 55.3125 C-79.4375 54.6525 -79.4375 53.9925 -79.4375 53.3125 C-77.33578133 52.4730118 -75.23103375 51.64110344 -73.125 50.8125 C-71.95324219 50.3484375 -70.78148437 49.884375 -69.57421875 49.40625 C-66.4375 48.3125 -66.4375 48.3125 -63.4375 48.3125 C-63.4375 47.6525 -63.4375 46.9925 -63.4375 46.3125 C-60.02333753 45.30381083 -56.60579771 44.30707679 -53.1875 43.3125 C-52.21941406 43.02632813 -51.25132812 42.74015625 -50.25390625 42.4453125 C-49.31933594 42.17460937 -48.38476562 41.90390625 -47.421875 41.625 C-46.56303711 41.37363281 -45.70419922 41.12226563 -44.81933594 40.86328125 C-42.4375 40.3125 -42.4375 40.3125 -38.4375 40.3125 C-38.4375 39.6525 -38.4375 38.9925 -38.4375 38.3125 C-30.99474229 35.67522031 -23.70893777 33.25414925 -15.9375 31.75 C-10.62001397 30.70452817 -6.96062025 29.22739972 -2.4375 26.3125 C-1.4475 26.3125 -0.4575 26.3125 0.5625 26.3125 C0.85125 25.69375 1.14 25.075 1.4375 24.4375 C2.5625 22.3125 2.5625 22.3125 4.5625 20.3125 C5.72407224 15.94568708 5.89316341 12.28612005 4.4375 8 C1.7288553 4.11760927 -0.65017066 1.82883959 -5.25 0.5 C-12.71081357 0.06112861 -17.2762186 1.28880602 -23.4375 5.3125 C-23.7675 5.6425 -24.0975 5.9725 -24.4375 6.3125 C-25.695625 6.580625 -26.95375 6.84875 -28.25 7.125 C-37.78805087 9.19586049 -50.31054831 12.18554831 -57.4375 19.3125 C-58.79074847 19.39245122 -60.14527038 19.45120185 -61.5 19.5 C-66.34074132 19.9679639 -68.84645909 21.76260375 -72.51953125 24.8125 C-76.10077793 27.61331207 -79.83983264 29.3125 -84.4375 29.3125 C-84.52 29.93125 -84.6025 30.55 -84.6875 31.1875 C-85.4375 33.3125 -85.4375 33.3125 -87.5 34.5625 C-88.139375 34.81 -88.77875 35.0575 -89.4375 35.3125 C-89.4375 35.9725 -89.4375 36.6325 -89.4375 37.3125 C-90.37851562 37.55484375 -91.31953125 37.7971875 -92.2890625 38.046875 C-93.53429687 38.38203125 -94.77953125 38.7171875 -96.0625 39.0625 C-97.90714844 39.54976563 -97.90714844 39.54976563 -99.7890625 40.046875 C-103.51215572 41.3383977 -106.22328612 43.06914838 -109.4375 45.3125 C-110.0975 45.3125 -110.7575 45.3125 -111.4375 45.3125 C-111.7675 46.3025 -112.0975 47.2925 -112.4375 48.3125 C-114.9125 48.8075 -114.9125 48.8075 -117.4375 49.3125 C-113.41947839 44.92848038 -109.03909752 41.87802096 -104 38.75 C-103.16944092 38.23187744 -102.33888184 37.71375488 -101.4831543 37.17993164 C-78.80937251 23.20265386 -54.96224971 11.20829433 -29.58105469 3.01171875 C-27.60992352 2.36874384 -25.65181383 1.68620506 -23.6953125 1 C-15.74323288 -1.69435168 -7.8614908 -3.8592773 0 0 Z " fill="#383875" transform="translate(399.4375,246.6875)"/>
<path d="M0 0 C3.02419525 0.58803797 6.01758453 1.22678118 9 2 C9 2.66 9 3.32 9 4 C9.804375 4.061875 10.60875 4.12375 11.4375 4.1875 C17.26737563 5.51712076 22.06209932 8.70806622 27 12 C28.1687481 15.5062443 28.12514267 18.6477866 28.09765625 22.29296875 C28.0962413 22.99899734 28.09482635 23.70502594 28.09336853 24.43244934 C28.08777764 26.68417626 28.07522688 28.93580321 28.0625 31.1875 C28.05748382 32.71549335 28.05292112 34.24348827 28.04882812 35.77148438 C28.0378112 39.51436135 28.02055287 43.25716373 28 47 C31.10383733 48.03461244 33.02259423 48.03909361 36.26171875 47.9375 C43.57190964 47.8760237 50.59516368 48.93412579 57.8125 50 C75.88542569 52.51677777 93.12639929 53.20306744 111.11328125 49.734375 C118.01863766 48.42964434 124.7978774 47.95402365 131.81640625 47.98046875 C132.7916626 47.98328857 133.76691895 47.9861084 134.77172852 47.98901367 C135.8747229 47.9944519 135.8747229 47.9944519 137 48 C137.03758423 46.37989014 137.03758423 46.37989014 137.07592773 44.72705078 C137.16995572 40.72757688 137.27018754 36.72827853 137.37231445 32.72900391 C137.4156808 30.99662374 137.45735463 29.26420037 137.49731445 27.53173828 C137.55497594 25.04446373 137.61868198 22.55740707 137.68359375 20.0703125 C137.70030624 19.29317902 137.71701874 18.51604553 137.73423767 17.71536255 C137.88612829 12.22774341 137.88612829 12.22774341 139 10 C141.33333333 9.33333333 143.66666667 8.66666667 146 8 C146.33 7.34 146.66 6.68 147 6 C149.31847874 5.2833793 151.65319703 4.61757973 154 4 C154.66 3.67 155.32 3.34 156 3 C156.99 3.495 156.99 3.495 158 4 C158 3.34 158 2.68 158 2 C158.9075 1.855625 159.815 1.71125 160.75 1.5625 C163.21476956 1.13590527 165.58847107 0.64925779 168 0 C165.61122004 2.69243008 163.15187214 4.09250442 159.9296875 5.6640625 C158.46208984 6.38722656 158.46208984 6.38722656 156.96484375 7.125 C155.94519531 7.62 154.92554688 8.115 153.875 8.625 C151.850753 9.61553492 149.82727197 10.60763724 147.8046875 11.6015625 C146.90733887 12.03807129 146.00999023 12.47458008 145.08544922 12.92431641 C143.06706336 13.83150847 143.06706336 13.83150847 142 15 C141.87778948 17.24386844 141.82018527 19.49130276 141.7890625 21.73828125 C141.76098494 23.12956888 141.73232042 24.52084476 141.703125 25.91210938 C141.66191116 28.11091677 141.62503594 30.30950704 141.59863281 32.50854492 C141.57097154 34.62725502 141.52509223 36.74496 141.4765625 38.86328125 C141.45674316 40.13469971 141.43692383 41.40611816 141.41650391 42.71606445 C140.97035341 46.23374926 140.65643831 47.67159051 138 50 C135.24658203 50.75341797 135.24658203 50.75341797 131.8828125 51.1171875 C130.62887695 51.26381836 129.37494141 51.41044922 128.08300781 51.56152344 C127.41628052 51.63222046 126.74955322 51.70291748 126.06262207 51.77575684 C123.9920699 52.00086214 121.92782346 52.25723434 119.86230469 52.52441406 C116.2692887 52.98901834 112.67395498 53.42972582 109.07666016 53.85986328 C107.60492885 54.03709772 106.13357022 54.21745372 104.66259766 54.40087891 C102.48158753 54.67272055 100.29959605 54.93496342 98.1171875 55.1953125 C96.84472168 55.35016113 95.57225586 55.50500977 94.26123047 55.66455078 C84.92157893 56.54304128 75.74717354 55.94649676 66.46875 54.7578125 C65.42980591 54.62937958 64.39086182 54.50094666 63.32043457 54.36862183 C61.14871538 54.09816875 58.977449 53.82405579 56.80664062 53.54638672 C53.48175728 53.12267521 50.15517047 52.71493925 46.828125 52.30859375 C44.70821416 52.04261475 42.5884179 51.77572061 40.46875 51.5078125 C38.98127258 51.32643234 38.98127258 51.32643234 37.46374512 51.14138794 C36.08080261 50.96142776 36.08080261 50.96142776 34.66992188 50.77783203 C33.86228394 50.6756839 33.054646 50.57353577 32.22253418 50.46829224 C29.88381081 49.97551871 28.08076349 49.15893307 26 48 C25.98018066 47.08186523 25.96036133 46.16373047 25.93994141 45.21777344 C25.86173045 41.80328175 25.77503416 38.38922298 25.68261719 34.97509766 C25.64439334 33.49894464 25.60952897 32.02270057 25.578125 30.54638672 C25.53233014 28.42121906 25.47436163 26.29667458 25.4140625 24.171875 C25.36693115 22.2552002 25.36693115 22.2552002 25.31884766 20.29980469 C24.93894257 16.33100836 24.93894257 16.33100836 23 13 C20.63030626 11.35675391 20.63030626 11.35675391 17.7734375 9.984375 C16.7421875 9.45585937 15.7109375 8.92734375 14.6484375 8.3828125 C13.02808594 7.57457031 13.02808594 7.57457031 11.375 6.75 C10.28703125 6.19570312 9.1990625 5.64140625 8.078125 5.0703125 C5.39055855 3.70295413 2.69793593 2.34675083 0 1 C0 0.67 0 0.34 0 0 Z " fill="#35377F" transform="translate(167,192)"/>
<path d="M0 0 C8.70162983 4.28749744 16.27935046 9.6543791 23.98242188 15.47949219 C26.05731423 17.04319373 28.14420131 18.5896091 30.234375 20.1328125 C49.01826637 34.03653274 49.01826637 34.03653274 51 38 C51.23553948 42.23971058 51.32845886 45.36178302 49 49 C43.9485781 49.35075326 40.735322 48.28482115 36.1796875 46.140625 C35.53167679 45.84013245 34.88366608 45.53963989 34.21601868 45.2300415 C32.82319934 44.58304779 31.43267634 43.93109172 30.04428101 43.2746582 C26.34695078 41.52822713 22.63092623 39.82225863 18.91796875 38.109375 C18.16645035 37.76140869 17.41493195 37.41344238 16.64064026 37.05493164 C-0.34586761 29.20023848 -17.49314898 21.81849815 -35.26123047 15.91113281 C-40.91277867 14.03097789 -46.55036836 12.11034652 -52.1875 10.1875 C-53.3420166 9.80182861 -54.4965332 9.41615723 -55.68603516 9.01879883 C-56.75257324 8.6555249 -57.81911133 8.29225098 -58.91796875 7.91796875 C-59.87469482 7.59594482 -60.8314209 7.2739209 -61.81713867 6.94213867 C-64 6 -64 6 -65 4 C-61.37 4.66 -57.74 5.32 -54 6 C-54 6.66 -54 7.32 -54 8 C-52.741875 7.896875 -51.48375 7.79375 -50.1875 7.6875 C-44.09257324 7.63897351 -39.30100109 10.22564429 -34 13 C-34 13.66 -34 14.32 -34 15 C-32.824375 15.2475 -31.64875 15.495 -30.4375 15.75 C-25.99650519 16.74003069 -21.58871596 17.84744059 -17.1875 19 C-15.92292969 19.33 -14.65835938 19.66 -13.35546875 20 C-10.64111568 20.80893409 -8.48315586 21.70353126 -6 23 C-4.3854726 23.53284733 -2.75938263 24.03157881 -1.125 24.5 C2.61296482 25.58931815 6.31529702 26.73944372 10 28 C9.34 28.33 8.68 28.66 8 29 C8 29.66 8 30.32 8 31 C10.31 31.33 12.62 31.66 15 32 C15.33 32.99 15.66 33.98 16 35 C16.6703125 35.09410156 17.340625 35.18820312 18.03125 35.28515625 C21.7675351 36.18481437 25.06228994 37.7662964 28.5 39.4375 C36.86181006 43.8004099 36.86181006 43.8004099 46 45 C47.25664978 42.09399739 48 40.20395416 48 37 C46.44587208 35.0573401 45.10521169 34.05260585 42.875 32.9375 C41 32 41 32 40 30 C38.11235097 29.31527335 38.11235097 29.31527335 35.9375 28.875 C35.20402344 28.70742188 34.47054687 28.53984375 33.71484375 28.3671875 C33.14894531 28.24601562 32.58304687 28.12484375 32 28 C32 27.01 32 26.02 32 25 C31.34 25 30.68 25 30 25 C30 24.01 30 23.02 30 22 C29.443125 21.896875 28.88625 21.79375 28.3125 21.6875 C24.71617573 20.61832251 21.86878757 18.6844993 18.9375 16.375 C16.92923781 14.94978167 15.40426796 14.42933356 13 14 C13 13.34 13 12.68 13 12 C12.34 12 11.68 12 11 12 C10.443125 10.9171875 10.443125 10.9171875 9.875 9.8125 C7.59700388 6.39550583 5.18465881 5.07151397 1.64453125 3.11328125 C1.10183594 2.74589844 0.55914062 2.37851562 0 2 C0 1.34 0 0.68 0 0 Z " fill="#31306B" transform="translate(194,280)"/>
<path d="M0 0 C-0.66 0 -1.32 0 -2 0 C-2 0.66 -2 1.32 -2 2 C-4.31 2.33 -6.62 2.66 -9 3 C-9 3.66 -9 4.32 -9 5 C-16.25472547 8.70837084 -16.25472547 8.70837084 -19.875 10.125 C-22.1650641 10.90865385 -22.1650641 10.90865385 -24 13 C-25.97725091 13.76955504 -27.98187794 14.47008058 -30 15.125 C-31.0725 15.47820312 -32.145 15.83140625 -33.25 16.1953125 C-36 17 -36 17 -38 17 C-38 17.66 -38 18.32 -38 19 C-39.423125 19.12375 -39.423125 19.12375 -40.875 19.25 C-44.10461791 19.65074923 -44.10461791 19.65074923 -45.375 22.0625 C-45.58125 22.701875 -45.7875 23.34125 -46 24 C-46.99 24 -47.98 24 -49 24 C-48.67 27.96 -48.34 31.92 -48 36 C-38.19893938 35.54059382 -38.19893938 35.54059382 -28.9609375 32.69140625 C-25.82950584 31.58729588 -22.65225313 31.49056501 -19.359375 31.24609375 C-16.804911 31.05443446 -16.804911 31.05443446 -13.6875 30 C-10.22732083 29.06164633 -7.31224514 28.76809483 -3.75 28.5625 C1.52308535 28.22540779 6.13770579 27.26740584 11.18359375 25.76171875 C18.82324427 23.69551646 26.81975349 22.92482982 34.6875 22.21875 C36.16941132 22.0785692 37.64934194 21.91405768 39.125 21.71875 C46.07508133 20.79888629 52.99960896 20.91037906 60 21 C60 21.33 60 21.66 60 22 C59.34602234 22.09498779 58.69204468 22.18997559 58.01824951 22.2878418 C49.59374946 23.51339554 41.17125899 24.75239165 32.75 26 C32.07414604 26.10004711 31.39829208 26.20009422 30.7019577 26.30317307 C10.10430849 29.35551646 -10.41353255 32.69788276 -30.86816406 36.61132812 C-32.14903397 36.85410744 -32.14903397 36.85410744 -33.45578003 37.10179138 C-35.01956945 37.39923784 -36.58244297 37.7015667 -38.14407349 38.01014709 C-42.14759917 38.77389796 -45.92332341 39.24257588 -50 39 C-51.98812066 37.01187934 -51.45259775 33.50893902 -51.5625 30.8125 C-51.68818359 28.84216797 -51.68818359 28.84216797 -51.81640625 26.83203125 C-50.81415831 22.1277 -49.59196114 21.07317271 -45.69018555 18.50756836 C-39.98128453 15.30832489 -34.07753632 12.58069833 -28.125 9.875 C-26.80040762 9.26252614 -25.47618619 8.64924938 -24.15234375 8.03515625 C-18.55117316 5.44757272 -12.92514728 2.91095157 -7.2421875 0.5078125 C-6.48534668 0.18699707 -5.72850586 -0.13381836 -4.94873047 -0.46435547 C-3 -1 -3 -1 0 0 Z " fill="#37366F" transform="translate(306,321)"/>
<path d="M0 0 C-0.1875 1.875 -0.1875 1.875 -1 4 C-1.825 4.309375 -2.65 4.61875 -3.5 4.9375 C-4.325 5.288125 -5.15 5.63875 -6 6 C-6.39171753 7.65391846 -6.72057545 9.32345271 -7 11 C-7.98806641 11.85464844 -7.98806641 11.85464844 -8.99609375 12.7265625 C-11.74376767 15.84380659 -11.53475046 17.89944581 -11.5 22 C-11.5103125 23.216875 -11.520625 24.43375 -11.53125 25.6875 C-10.91248208 29.54569999 -9.92387788 30.53837329 -7 33 C-6.566875 33.86625 -6.13375 34.7325 -5.6875 35.625 C-3.32812371 38.94560367 -0.88145327 39.19441536 3 40 C3 40.66 3 41.32 3 42 C4.03125 41.979375 5.0625 41.95875 6.125 41.9375 C10 42 10 42 13.1875 42.5625 C15.92878267 42.98892175 17.39756404 42.77109214 20 42 C20.33 42.33 20.66 42.66 21 43 C24.82787552 43.67376959 28.70205901 44.05629002 32.5625 44.5 C34.29693359 44.70181885 34.29693359 44.70181885 36.06640625 44.90771484 C45.24047278 45.92110018 54.38306563 46.45969044 63.60766602 46.70898438 C64.55182373 46.73541016 65.49598145 46.76183594 66.46875 46.7890625 C67.29826172 46.80662598 68.12777344 46.82418945 68.98242188 46.84228516 C71 47 71 47 73 48 C74.99450006 48.21104658 76.99475144 48.36885082 78.99609375 48.5 C80.19427734 48.5825 81.39246094 48.665 82.62695312 48.75 C83.88443359 48.8325 85.14191406 48.915 86.4375 49 C88.915603 49.16308339 91.39348383 49.32958943 93.87109375 49.5 C94.97380615 49.5721875 96.07651855 49.644375 97.21264648 49.71875 C100 50 100 50 103 51 C105.22574335 51.22451458 107.45581519 51.40782878 109.6875 51.5625 C110.86699219 51.64628906 112.04648438 51.73007812 113.26171875 51.81640625 C114.61716797 51.90728516 114.61716797 51.90728516 116 52 C116 52.66 116 53.32 116 54 C116.99 54.33 117.98 54.66 119 55 C111.42258175 54.51475093 103.89569263 53.79325626 96.35546875 52.9140625 C73.51966467 50.26730642 50.74981975 48.20174494 27.78979492 46.98876953 C-1.40297876 45.41872337 -1.40297876 45.41872337 -10.3125 36.75 C-13.95981462 30.80622802 -16.21763446 23.99805297 -15 17 C-12.91001298 10.62286013 -9.9937099 5.06708541 -4.375 1.1875 C-2 0 -2 0 0 0 Z " fill="#323371" transform="translate(28,289)"/>
<path d="M0 0 C3.13861857 3.13861857 2.92594576 6.69138981 3 11 C2.47515557 17.90462001 -0.01525733 23.18351868 -5 28 C-15.01019914 36.04901727 -30.53758657 34.77147885 -42.7109375 35.41796875 C-43.39897461 35.45459122 -44.08701172 35.49121368 -44.79589844 35.52894592 C-45.49972656 35.56636398 -46.20355469 35.60378204 -46.92871094 35.64233398 C-47.64716187 35.68059296 -48.36561279 35.71885193 -49.10583496 35.75827026 C-50.57949502 35.83622498 -52.05321012 35.9131461 -53.52697754 35.98904419 C-67.80839202 36.7330057 -81.99436632 38.10509332 -96.20629883 39.67919922 C-97.00166046 39.76611023 -97.79702209 39.85302124 -98.6164856 39.94256592 C-100.09186678 40.10459081 -101.56683362 40.27046238 -103.04122925 40.44122314 C-107.73080298 40.9581818 -112.29109518 41.06776349 -117 41 C-116.67 40.34 -116.34 39.68 -116 39 C-108.97070449 36.91168502 -101.44071648 36.64852721 -94.1640625 36.24609375 C-91.12075963 36.07675089 -91.12075963 36.07675089 -88.66015625 35.51367188 C-85.85015741 34.97106564 -83.12852174 34.72613413 -80.2734375 34.53515625 C-79.1685498 34.4582959 -78.06366211 34.38143555 -76.92529297 34.30224609 C-75.75369629 34.22312988 -74.58209961 34.14401367 -73.375 34.0625 C-65.18412141 33.49155111 -57.02932355 32.83626447 -48.875 31.875 C-42.85153823 31.16612916 -36.99979618 30.93932614 -30.9375 31.0625 C-22.43429479 31.1946339 -15.59857625 30.50882194 -9 24.8125 C-8.46375 24.28269531 -7.9275 23.75289063 -7.375 23.20703125 C-6 22 -6 22 -4 22 C-3.67 19.69 -3.34 17.38 -3 15 C-2.01 15.99 -2.01 15.99 -1 17 C0.87824891 15.12175109 0.39102397 11.96064724 0.5625 9.4375 C0.68818359 7.64119141 0.68818359 7.64119141 0.81640625 5.80859375 C0.87699219 4.88175781 0.93757813 3.95492188 1 3 C0.01 2.505 0.01 2.505 -1 2 C-0.67 1.34 -0.34 0.68 0 0 Z " fill="#34377B" transform="translate(484,301)"/>
<path d="M0 0 C3.77096476 1.91717671 7.34345211 4.09511768 10.90994263 6.3677063 C13.36037239 7.9286158 15.83028327 9.45743914 18.29948425 10.98841858 C19.59178251 11.78990279 20.88312455 12.59293071 22.17353821 13.39744568 C28.89507167 17.58144333 35.72052063 21.57967908 42.5625 25.5625 C44.97703538 26.97184708 47.39082995 28.38246113 49.8046875 29.79296875 C50.39928772 30.14018982 50.99388794 30.48741089 51.60650635 30.84515381 C110.67715538 65.35431075 110.67715538 65.35431075 113 70 C113.375 72.8125 113.375 72.8125 113 76 C109.84690378 80.08047746 106.95967428 81.73124612 102 83 C105.625 78.125 105.625 78.125 109 77 C109.80212628 75.12612784 109.80212628 75.12612784 110.1875 72.9375 C110.34605469 72.20402344 110.50460937 71.47054687 110.66796875 70.71484375 C110.77753906 70.14894531 110.88710938 69.58304687 111 69 C110.39285156 68.86335938 109.78570312 68.72671875 109.16015625 68.5859375 C105.7430821 67.65906386 102.95280009 65.9925001 100.5 63.4375 C98.5540185 61.57260106 96.51952188 60.88523742 94 60 C94 59.34 94 58.68 94 58 C93.319375 57.731875 92.63875 57.46375 91.9375 57.1875 C90.968125 56.795625 89.99875 56.40375 89 56 C88.38769531 55.75894531 87.77539062 55.51789063 87.14453125 55.26953125 C82.11287193 53.22574386 82.11287193 53.22574386 81 51 C79.35636866 50.27840576 77.68949614 49.60648579 76 49 C76 48.34 76 47.68 76 47 C75.113125 46.731875 74.22625 46.46375 73.3125 46.1875 C70.20941503 45.07507331 67.81097929 43.68658758 65 42 C63.01548229 41.28856912 61.01797888 40.61008664 59 40 C59 39.34 59 38.68 59 38 C57.68 38 56.36 38 55 38 C55 37.34 55 36.68 55 36 C53.35 36 51.7 36 50 36 C50 34.68 50 33.36 50 32 C49.195625 31.79375 48.39125 31.5875 47.5625 31.375 C43.78478707 29.91693536 40.92843786 28.05783113 37.61328125 25.7734375 C29.85244541 20.50674173 21.76692067 15.80118531 13.50390625 11.375 C11.16049741 10.08813586 8.88861974 8.73413782 6.625 7.3125 C5.98820312 6.91289063 5.35140625 6.51328125 4.6953125 6.1015625 C3.26755187 5.17384706 1.87851635 4.18692435 0.5 3.1875 C-3.1151062 1.47032455 -6.02315416 1.7977875 -10 2 C-10 2.66 -10 3.32 -10 4 C-11.6210103 4.69685498 -13.24696066 5.38222861 -14.875 6.0625 C-15.77992188 6.44535156 -16.68484375 6.82820313 -17.6171875 7.22265625 C-20 8 -20 8 -22 7 C-19.84716701 5.61819568 -17.6822786 4.27136213 -15.5 2.9375 C-14.89929688 2.54755859 -14.29859375 2.15761719 -13.6796875 1.75585938 C-9.02706044 -1.04066646 -5.23769474 -1.87171706 0 0 Z " fill="#3B3C6F" transform="translate(256,97)"/>
<path d="M0 0 C3.02419525 0.58803797 6.01758453 1.22678118 9 2 C9 2.66 9 3.32 9 4 C9.804375 4.061875 10.60875 4.12375 11.4375 4.1875 C17.26737563 5.51712076 22.06209932 8.70806622 27 12 C28.1687481 15.5062443 28.12514267 18.6477866 28.09765625 22.29296875 C28.0962413 22.99899734 28.09482635 23.70502594 28.09336853 24.43244934 C28.08777764 26.68417626 28.07522688 28.93580321 28.0625 31.1875 C28.05748382 32.71549335 28.05292112 34.24348827 28.04882812 35.77148438 C28.0378112 39.51436135 28.02055287 43.25716373 28 47 C31.10908134 48.03636045 32.83290598 47.98056607 36.0625 47.8125 C42.4645057 47.73461672 48.24250294 48.96043369 54.41625977 50.48950195 C78.05607054 56.29729755 103.08124182 52.88538375 126.82568359 49.3671875 C129.91651404 49.0096572 132.89186265 48.93430621 136 49 C133.70113734 51.29886266 133.04522389 51.33064336 129.92431641 51.68603516 C129.08228668 51.78598785 128.24025696 51.88594055 127.37271118 51.98892212 C126.45823212 52.08796844 125.54375305 52.18701477 124.6015625 52.2890625 C123.6562265 52.39721283 122.7108905 52.50536316 121.73690796 52.61679077 C119.72823791 52.84446139 117.71907012 53.06777562 115.70947266 53.28710938 C112.67077672 53.61998536 109.63426943 53.96900154 106.59765625 54.3203125 C104.64073492 54.54004369 102.68370636 54.75882227 100.7265625 54.9765625 C99.38520737 55.13120468 99.38520737 55.13120468 98.01675415 55.28897095 C87.36845907 56.43051296 77.07770791 56.11695517 66.46875 54.7578125 C65.42980591 54.62937958 64.39086182 54.50094666 63.32043457 54.36862183 C61.14871538 54.09816875 58.977449 53.82405579 56.80664062 53.54638672 C53.48175728 53.12267521 50.15517047 52.71493925 46.828125 52.30859375 C44.70821416 52.04261475 42.5884179 51.77572061 40.46875 51.5078125 C38.98127258 51.32643234 38.98127258 51.32643234 37.46374512 51.14138794 C36.08080261 50.96142776 36.08080261 50.96142776 34.66992188 50.77783203 C33.86228394 50.6756839 33.054646 50.57353577 32.22253418 50.46829224 C29.88381081 49.97551871 28.08076349 49.15893307 26 48 C25.98018066 47.08186523 25.96036133 46.16373047 25.93994141 45.21777344 C25.86173045 41.80328175 25.77503416 38.38922298 25.68261719 34.97509766 C25.64439334 33.49894464 25.60952897 32.02270057 25.578125 30.54638672 C25.53233014 28.42121906 25.47436163 26.29667458 25.4140625 24.171875 C25.36693115 22.2552002 25.36693115 22.2552002 25.31884766 20.29980469 C24.93894257 16.33100836 24.93894257 16.33100836 23 13 C20.63030626 11.35675391 20.63030626 11.35675391 17.7734375 9.984375 C16.7421875 9.45585937 15.7109375 8.92734375 14.6484375 8.3828125 C13.02808594 7.57457031 13.02808594 7.57457031 11.375 6.75 C10.28703125 6.19570312 9.1990625 5.64140625 8.078125 5.0703125 C5.39055855 3.70295413 2.69793593 2.34675083 0 1 C0 0.67 0 0.34 0 0 Z " fill="#2E2C60" transform="translate(167,192)"/>
<path d="M0 0 C0.66838394 0.15199356 1.33676788 0.30398712 2.02540588 0.46058655 C6.26762773 1.44415122 10.44032943 2.57921501 14.6171875 3.8046875 C14.6171875 4.4646875 14.6171875 5.1246875 14.6171875 5.8046875 C6.91951744 5.0083768 -0.72634171 3.92647483 -8.3828125 2.8046875 C-8.3828125 2.1446875 -8.3828125 1.4846875 -8.3828125 0.8046875 C-9.50300781 0.67191406 -10.62320313 0.53914063 -11.77734375 0.40234375 C-13.25001979 0.22412181 -14.72267497 0.04572739 -16.1953125 -0.1328125 C-16.93330078 -0.21982422 -17.67128906 -0.30683594 -18.43164062 -0.39648438 C-21.55014371 -0.77747796 -24.39389372 -1.19900624 -27.3828125 -2.1953125 C-29.37120289 -2.1953125 -31.36021006 -2.19408252 -33.34765625 -2.1328125 C-35.53008513 -2.19983527 -37.2749067 -2.62247131 -39.3828125 -3.1953125 C-49.17368975 -5.41319901 -58.30362477 -6.49906068 -68.34765625 -6.203125 C-69.85005859 -6.19925781 -69.85005859 -6.19925781 -71.3828125 -6.1953125 C-71.7128125 -6.5253125 -72.0428125 -6.8553125 -72.3828125 -7.1953125 C-74.2328121 -7.4235385 -76.09046764 -7.59036188 -77.94921875 -7.73046875 C-79.07392578 -7.81748047 -80.19863281 -7.90449219 -81.35742188 -7.99414062 C-82.54142578 -8.08115234 -83.72542969 -8.16816406 -84.9453125 -8.2578125 C-86.13318359 -8.34869141 -87.32105469 -8.43957031 -88.54492188 -8.53320312 C-91.49060155 -8.75797386 -94.43653924 -8.97848446 -97.3828125 -9.1953125 C-97.7128125 -8.5353125 -98.0428125 -7.8753125 -98.3828125 -7.1953125 C-98.3828125 -8.1853125 -98.3828125 -9.1753125 -98.3828125 -10.1953125 C-67.31373434 -16.09713739 -30.26706461 -6.88541761 0 0 Z " fill="#36386F" transform="translate(127.3828125,298.1953125)"/>
<path d="M0 0 C0.66 0 1.32 0 2 0 C3.7479503 5.24385089 4.19392201 9.47322267 4 15 C4.66 15 5.32 15 6 15 C6.04898438 14.25234375 6.09796875 13.5046875 6.1484375 12.734375 C6.22320312 11.74953125 6.29796875 10.7646875 6.375 9.75 C6.44460937 8.77546875 6.51421875 7.8009375 6.5859375 6.796875 C6.98465249 4.10366811 7.63507063 2.33036721 9 0 C11.62594784 0.1136515 14.25011547 0.24039054 16.875 0.375 C17.62136719 0.4059375 18.36773437 0.436875 19.13671875 0.46875 C24.7734375 0.7734375 24.7734375 0.7734375 27 3 C21.39 3 15.78 3 10 3 C9.87625 4.876875 9.7525 6.75375 9.625 8.6875 C8.13176278 27.86823722 8.13176278 27.86823722 5 31 C4.48996146 27.83486722 3.99384043 24.66769716 3.5 21.5 C3.35691406 20.613125 3.21382812 19.72625 3.06640625 18.8125 C2.93105469 17.9359375 2.79570312 17.059375 2.65625 16.15625 C2.53056641 15.36025391 2.40488281 14.56425781 2.27539062 13.74414062 C1.91765696 10.17948952 2 6.58255647 2 3 C-3.61 3 -9.22 3 -15 3 C-15 20.82 -15 38.64 -15 57 C-15.66 56.67 -16.32 56.34 -17 56 C-17.02526648 48.47030348 -17.04283141 40.9406178 -17.05493164 33.41088867 C-17.0599737 30.84708243 -17.06680714 28.28327909 -17.07543945 25.71948242 C-17.08751064 22.04344979 -17.09322942 18.36745502 -17.09765625 14.69140625 C-17.10281754 13.53725723 -17.10797882 12.38310822 -17.11329651 11.19398499 C-17.11337204 10.13296066 -17.11344757 9.07193634 -17.11352539 7.97875977 C-17.115746 7.03944107 -17.11796661 6.10012238 -17.12025452 5.13233948 C-17 3 -17 3 -16 2 C-12.7901307 1.73001099 -9.58769141 1.55388563 -6.37109375 1.39453125 C-2.89055723 1.5029448 -2.89055723 1.5029448 0 0 Z " fill="#444D86" transform="translate(224,149)"/>
<path d="M0 0 C-3.45990684 0.98464471 -5.3018487 0.8701001 -8.75 -0.25 C-10.06871094 -0.67345703 -10.06871094 -0.67345703 -11.4140625 -1.10546875 C-14.31821224 -2.11007644 -17.18254162 -3.19662693 -20.046875 -4.30859375 C-23.3013397 -5.46067425 -26.64600619 -6.19041529 -30 -7 C-30.66 -7.33 -31.32 -7.66 -32 -8 C-32 -8.66 -32 -9.32 -32 -10 C-33.91731918 -9.88544319 -35.8338675 -9.75793742 -37.75 -9.625 C-39.35101563 -9.52058594 -39.35101563 -9.52058594 -40.984375 -9.4140625 C-43.84084954 -9.02185226 -45.63624622 -8.62370003 -48 -7 C-48.33 -6.01 -48.66 -5.02 -49 -4 C-49.66 -3.34 -50.32 -2.68 -51 -2 C-53.36360267 1.54540401 -53.32141146 2.82165098 -53 7 C-52.3747292 9.34476551 -51.7136591 11.68060793 -51 14 C-51 14.66 -51 15.32 -51 16 C-50.05125 15.95875 -49.1025 15.9175 -48.125 15.875 C-45 16 -45 16 -43 18 C-39.54815798 19.39717415 -36.43169679 20.08715825 -32.75 20.375 C-29 21 -29 21 -27.5 23.0625 C-27.2525 24.0215625 -27.2525 24.0215625 -27 25 C-25.02 25 -23.04 25 -21 25 C-21.495 25.99 -21.495 25.99 -22 27 C-27.62801459 26.37799572 -32.70298992 24.98890331 -38.0625 23.1875 C-38.83916016 22.93935547 -39.61582031 22.69121094 -40.41601562 22.43554688 C-46.35269051 20.46000646 -51.53203296 18.44661174 -54.875 12.875 C-56.93462182 7.17426103 -56.77366632 1.32099895 -54.875 -4.375 C-42.41399639 -21.82040505 -15.03036469 -6.03650063 0 0 Z " fill="#37366D" transform="translate(149,257)"/>
<path d="M0 0 C9.11577198 -0.22280845 16.32337844 0.14670734 23.17578125 6.59765625 C25.53034084 9.03397138 26.58712874 10.8121951 27.17578125 14.16015625 C26.18578125 13.50015625 25.19578125 12.84015625 24.17578125 12.16015625 C24.17578125 11.50015625 24.17578125 10.84015625 24.17578125 10.16015625 C23.55703125 9.89203125 22.93828125 9.62390625 22.30078125 9.34765625 C20.17578125 8.16015625 20.17578125 8.16015625 18.17578125 5.16015625 C14.28715781 3.09963181 10.95378667 2.91399361 6.59765625 2.9296875 C4.73367188 2.93258789 4.73367188 2.93258789 2.83203125 2.93554688 C1.54296875 2.94779297 0.25390625 2.96003906 -1.07421875 2.97265625 C-2.37875 2.97330078 -3.68328125 2.97394531 -5.02734375 2.97460938 C-10.80318628 2.43489804 -10.80318628 2.43489804 -15.82421875 4.16015625 C-15.16421875 4.82015625 -14.50421875 5.48015625 -13.82421875 6.16015625 C-17.12421875 6.49015625 -20.42421875 6.82015625 -23.82421875 7.16015625 C-23.82421875 6.50015625 -23.82421875 5.84015625 -23.82421875 5.16015625 C-31.6833254 5.58497283 -39.19834555 6.18428761 -46.82421875 8.16015625 C-48.48941394 8.50076436 -50.15579341 8.83574021 -51.82421875 9.16015625 C-52.53835938 9.32 -53.2525 9.47984375 -53.98828125 9.64453125 C-57.47149951 10.27784366 -60.9191742 10.57959567 -64.44921875 10.84765625 C-66.41761719 11.00814453 -66.41761719 11.00814453 -68.42578125 11.171875 C-71.82421875 11.16015625 -71.82421875 11.16015625 -74.82421875 9.16015625 C-49.99571902 4.17789806 -25.29363988 1.0592842 0 0 Z " fill="#383D8A" transform="translate(456.82421875,286.83984375)"/>
<path d="M0 0 C26.37434548 4.60504445 51.31574311 15.59981535 75.625 26.4375 C76.53114044 26.83794525 77.43728088 27.2383905 78.37088013 27.65097046 C80.95332912 28.79575776 83.52839891 29.95560997 86.1015625 31.12109375 C86.88568008 31.46763 87.66979767 31.81416626 88.47767639 32.17120361 C90.35714063 33.03444522 92.18503261 34.00830182 94 35 C94.33 35.99 94.66 36.98 95 38 C92.69 38.66 90.38 39.32 88 40 C88 38.35 88 36.7 88 35 C87.01 35 86.02 35 85 35 C85 34.34 85 33.68 85 33 C83.906875 32.896875 82.81375 32.79375 81.6875 32.6875 C78 32 78 32 76.671875 30.58203125 C74.26028354 28.30003466 71.74207597 27.8661728 68.5625 27 C64.30774577 25.83829236 61.46496384 24.67987399 58 22 C54.83267579 21.74913276 54.83267579 21.74913276 52 22 C51.79375 21.360625 51.5875 20.72125 51.375 20.0625 C50.10461791 17.65074923 50.10461791 17.65074923 46.875 17.25 C45.451875 17.12625 45.451875 17.12625 44 17 C44 16.34 44 15.68 44 15 C42.865625 14.896875 41.73125 14.79375 40.5625 14.6875 C36.52185541 14.19228778 32.89977059 13.09344266 29.078125 11.71875 C27.06883497 11.02380758 25.06894734 10.4846183 23 10 C23 9.34 23 8.68 23 8 C20.20869212 7.49792321 17.41699129 6.99824925 14.625 6.5 C13.43390625 6.28537109 13.43390625 6.28537109 12.21875 6.06640625 C8.13504086 5.2887917 8.13504086 5.2887917 4 5 C4 4.34 4 3.68 4 3 C2.68 2.34 1.36 1.68 0 1 C0 0.67 0 0.34 0 0 Z " fill="#3C3E76" transform="translate(143,303)"/>
<path d="M0 0 C0 0.66 0 1.32 0 2 C-1.65 2.33 -3.3 2.66 -5 3 C-4.505 4.485 -4.505 4.485 -4 6 C-6.9826906 7.52448631 -9.818202 8.93940067 -13 10 C-13 10.66 -13 11.32 -13 12 C-14.11375 12.45375 -15.2275 12.9075 -16.375 13.375 C-19.96199008 14.72465986 -19.96199008 14.72465986 -22 17 C-24.32275177 17.40047444 -26.65739357 17.7397104 -29 18 C-29.495 19.485 -29.495 19.485 -30 21 C-30.99 21 -31.98 21 -33 21 C-33 21.66 -33 22.32 -33 23 C-34.216875 23.4125 -35.43375 23.825 -36.6875 24.25 C-39.59391122 25.31943652 -41.23138153 26.18833381 -43.6875 28.1875 C-46.38133995 30.29888807 -47.66360891 30.38130184 -51 30 C-51.05800781 30.61875 -51.11601562 31.2375 -51.17578125 31.875 C-52 34 -52 34 -54.29296875 35.125 C-55.24816406 35.41375 -56.20335937 35.7025 -57.1875 36 C-60.61247102 37.11944578 -63.56739488 38.14149404 -66.5 40.25 C-69 42 -69 42 -72 42 C-72 42.66 -72 43.32 -72 44 C-73.4317616 44.69937202 -74.87067032 45.38412718 -76.3125 46.0625 C-77.11300781 46.44535156 -77.91351563 46.82820313 -78.73828125 47.22265625 C-81 48 -81 48 -84 47 C-83.27111572 46.59797363 -82.54223145 46.19594727 -81.79125977 45.78173828 C-64.04601059 36.00757318 -64.04601059 36.00757318 -46.51513672 25.85668945 C-38.86496016 21.30861745 -31.14675084 16.87918711 -23.43334961 12.43945312 C-22.38671143 11.83681641 -21.34007324 11.23417969 -20.26171875 10.61328125 C-19.23353027 10.02240723 -18.2053418 9.4315332 -17.14599609 8.82275391 C-14.95954087 7.55594693 -12.78067476 6.27598725 -10.60791016 4.98583984 C-9.52687012 4.34469238 -8.44583008 3.70354492 -7.33203125 3.04296875 C-5.86793823 2.16741333 -5.86793823 2.16741333 -4.37426758 1.27416992 C-2 0 -2 0 0 0 Z " fill="#3A3D7C" transform="translate(234,105)"/>
<path d="M0 0 C-1.875 4.75 -1.875 4.75 -3 7 C-3.7425 7.12375 -4.485 7.2475 -5.25 7.375 C-9.47990618 8.33634231 -11.99528321 10.99528321 -15 14 C-16.98768394 15.35162508 -18.9866347 16.68693567 -21 18 C-20.484375 18.556875 -19.96875 19.11375 -19.4375 19.6875 C-18 22 -18 22 -18.41015625 24.64453125 C-18.60480469 25.42183594 -18.79945313 26.19914062 -19 27 C-18.32453125 26.84402344 -17.6490625 26.68804687 -16.953125 26.52734375 C-15.61507813 26.23537109 -15.61507813 26.23537109 -14.25 25.9375 C-12.92742187 25.64166016 -12.92742187 25.64166016 -11.578125 25.33984375 C-9.01320972 25.00174128 -7.42908361 25.18841365 -5 26 C-7.39054107 27.1787322 -9.78645215 28.34302997 -12.1875 29.5 C-12.86103516 29.83386719 -13.53457031 30.16773438 -14.22851562 30.51171875 C-17.96303529 32.29700132 -20.75794549 33.46127195 -25 33 C-27.3615963 29.31000578 -27.58419761 26.30845736 -27 22 C-24.00754797 16.86845679 -19.13418902 13.34355801 -14.44921875 9.84375 C-10.90017251 7.17205969 -7.49308666 4.32997914 -4.06640625 1.50390625 C-2 0 -2 0 0 0 Z " fill="#343C8F" transform="translate(282,296)"/>
<path d="M0 0 C8.70162983 4.28749744 16.27935046 9.6543791 23.98242188 15.47949219 C26.05731423 17.04319373 28.14420131 18.5896091 30.234375 20.1328125 C49.01826637 34.03653274 49.01826637 34.03653274 51 38 C51.23553948 42.23971058 51.32845886 45.36178302 49 49 C47.68 49 46.36 49 45 49 C45.51383787 46.68772959 46.15220624 44.63291437 47.0625 42.4375 C48.17948954 39.96858933 48.17948954 39.96858933 48 37 C46.44587208 35.0573401 45.10521169 34.05260585 42.875 32.9375 C41 32 41 32 40 30 C38.11235097 29.31527335 38.11235097 29.31527335 35.9375 28.875 C35.20402344 28.70742188 34.47054687 28.53984375 33.71484375 28.3671875 C33.14894531 28.24601562 32.58304688 28.12484375 32 28 C32 27.01 32 26.02 32 25 C31.34 25 30.68 25 30 25 C30 24.01 30 23.02 30 22 C29.443125 21.896875 28.88625 21.79375 28.3125 21.6875 C24.71617573 20.61832251 21.86878757 18.6844993 18.9375 16.375 C16.92923781 14.94978167 15.40426796 14.42933356 13 14 C13 13.34 13 12.68 13 12 C12.34 12 11.68 12 11 12 C10.62875 11.278125 10.2575 10.55625 9.875 9.8125 C7.59700388 6.39550583 5.18465881 5.07151397 1.64453125 3.11328125 C1.10183594 2.74589844 0.55914062 2.37851562 0 2 C0 1.34 0 0.68 0 0 Z " fill="#363671" transform="translate(194,280)"/>
<path d="M0 0 C-0.66 0 -1.32 0 -2 0 C-2 0.66 -2 1.32 -2 2 C-4.31 2.33 -6.62 2.66 -9 3 C-9 3.66 -9 4.32 -9 5 C-16.25472547 8.70837084 -16.25472547 8.70837084 -19.875 10.125 C-22.1650641 10.90865385 -22.1650641 10.90865385 -24 13 C-25.97725091 13.76955504 -27.98187794 14.47008058 -30 15.125 C-31.0725 15.47820312 -32.145 15.83140625 -33.25 16.1953125 C-36 17 -36 17 -38 17 C-38 17.66 -38 18.32 -38 19 C-39.423125 19.12375 -39.423125 19.12375 -40.875 19.25 C-44.10461791 19.65074923 -44.10461791 19.65074923 -45.375 22.0625 C-45.58125 22.701875 -45.7875 23.34125 -46 24 C-46.99 24 -47.98 24 -49 24 C-48.85923685 25.9587043 -48.7122324 27.91696093 -48.5625 29.875 C-48.44068359 31.51082031 -48.44068359 31.51082031 -48.31640625 33.1796875 C-48.16998297 35.94728971 -48.16998297 35.94728971 -47 38 C-48.32 38 -49.64 38 -51 38 C-51.21801013 35.62005606 -51.37493488 33.2601705 -51.5 30.875 C-51.56703125 30.20984375 -51.6340625 29.5446875 -51.703125 28.859375 C-51.81625915 25.97445429 -51.56595052 23.69157487 -49.70654297 21.41943359 C-43.38783685 16.29518988 -35.48486519 13.22039327 -28.125 9.875 C-26.80040762 9.26252614 -25.47618619 8.64924938 -24.15234375 8.03515625 C-18.55117316 5.44757272 -12.92514728 2.91095157 -7.2421875 0.5078125 C-6.48534668 0.18699707 -5.72850586 -0.13381836 -4.94873047 -0.46435547 C-3 -1 -3 -1 0 0 Z " fill="#373876" transform="translate(306,321)"/>
<path d="M0 0 C0.66 0 1.32 0 2 0 C2 14.19 2 28.38 2 43 C3.485 43.495 3.485 43.495 5 44 C4.525625 44.433125 4.05125 44.86625 3.5625 45.3125 C1.76313043 47.02309613 1.76313043 47.02309613 1 50 C2.32 50.33 3.64 50.66 5 51 C5 51.66 5 52.32 5 53 C-0.72455159 56.81636773 -6.29749495 56.29282789 -13 56 C-13.33 55.34 -13.66 54.68 -14 54 C-9.38 54 -4.76 54 0 54 C0 36.18 0 18.36 0 0 Z " fill="#343D88" transform="translate(283,152)"/>
<path d="M0 0 C3.99728798 3.60730866 7.21471202 6.80117909 7.765625 12.36328125 C7.87128583 17.46141633 7.52374966 20.96933383 4.5625 25.3125 C0.24073013 29.40984562 -3.52064775 31.42717099 -9.1875 33.125 C-10.19490234 33.44887695 -10.19490234 33.44887695 -11.22265625 33.77929688 C-16.08023313 35.3125 -16.08023313 35.3125 -18.4375 35.3125 C-18.4375 34.3225 -18.4375 33.3325 -18.4375 32.3125 C-17.58478516 32.16554688 -17.58478516 32.16554688 -16.71484375 32.015625 C-12.62038406 31.22270793 -9.15414531 30.35633078 -5.5625 28.1875 C-2.4375 26.3125 -2.4375 26.3125 0.5625 26.3125 C0.85125 25.69375 1.14 25.075 1.4375 24.4375 C2.5625 22.3125 2.5625 22.3125 4.5625 20.3125 C5.72407224 15.94568708 5.89316341 12.28612005 4.4375 8 C1.7288553 4.11760927 -0.65017066 1.82883959 -5.25 0.5 C-11.92832315 0.10715746 -18.03941178 1.59872637 -24.4375 3.3125 C-24.7675 2.6525 -25.0975 1.9925 -25.4375 1.3125 C-17.08847283 -1.40053011 -8.25984333 -4.05483218 0 0 Z " fill="#313063" transform="translate(399.4375,246.6875)"/>
<path d="M0 0 C8.29951895 -1.03743987 14.74979329 2.70616851 22 6.25 C23.24412528 6.84384603 24.48891362 7.43630502 25.734375 8.02734375 C31.85938527 10.94453863 37.94423683 13.9418396 44 17 C44 17.66 44 18.32 44 19 C41.69 19.66 39.38 20.32 37 21 C37 19.35 37 17.7 37 16 C36.01 16 35.02 16 34 16 C34 15.34 34 14.68 34 14 C32.906875 13.896875 31.81375 13.79375 30.6875 13.6875 C27 13 27 13 25.671875 11.58203125 C23.26028354 9.30003466 20.74207597 8.8661728 17.5625 8 C13.30774577 6.83829236 10.46496384 5.67987399 7 3 C3.83267579 2.74913276 3.83267579 2.74913276 1 3 C0.67 2.01 0.34 1.02 0 0 Z " fill="#44477D" transform="translate(194,322)"/>
<path d="M0 0 C9.38028438 2.16468101 17.53943007 6.57163493 26 11 C27.41917585 11.73195502 28.83844591 12.46372742 30.2578125 13.1953125 C31.60995219 13.89993516 32.96153622 14.60562539 34.3125 15.3125 C35.25452271 15.80012817 35.25452271 15.80012817 36.21557617 16.29760742 C39.22118592 17.89251368 41.7782868 19.39329678 44 22 C41.29110713 21.47905906 39.41281974 20.68843496 36.9375 19.375 C34.03548317 17.60562267 34.03548317 17.60562267 31 19 C29 18 29 18 28 15 C25.69836033 14.0837631 25.69836033 14.0837631 23 13.5 C20.25 12.84375 20.25 12.84375 18 12 C17.67 11.01 17.34 10.02 17 9 C14.03 8.505 14.03 8.505 11 8 C11 7.34 11 6.68 11 6 C10.0925 6.04125 9.185 6.0825 8.25 6.125 C5.08989353 6.00345744 3.51604543 5.86373735 1 4 C0.39453125 1.921875 0.39453125 1.921875 0 0 Z " fill="#353572" transform="translate(149,258)"/>
<path d="M0 0 C0.66 0 1.32 0 2 0 C2 16.5 2 33 2 50 C2.66 50 3.32 50 4 50 C4 51.32 4 52.64 4 54 C2.68 54 1.36 54 0 54 C0 36.18 0 18.36 0 0 Z " fill="#38407C" transform="translate(251,152)"/>
<path d="M0 0 C6 2 6 2 8 3 C8.33 2.34 8.66 1.68 9 1 C9 1.66 9 2.32 9 3 C10.98 2.67 12.96 2.34 15 2 C15 3.32 15 4.64 15 6 C15.886875 6.268125 16.77375 6.53625 17.6875 6.8125 C20.7909666 7.9250635 23.31110685 9.10195778 26 11 C26 11.66 26 12.32 26 13 C27.98 13.66 29.96 14.32 32 15 C32 15.66 32 16.32 32 17 C26.39604783 15.39626735 21.53424339 12.75925783 16.4375 10 C9.38841894 6.13760995 9.38841894 6.13760995 2 3 C1.97296619 4.93742341 1.95358875 6.87495479 1.9375 8.8125 C1.92589844 9.89144531 1.91429687 10.97039062 1.90234375 12.08203125 C1.86375234 15.06512169 1.86375234 15.06512169 3 18 C2.01 17.67 1.02 17.34 0 17 C0 11.39 0 5.78 0 0 Z " fill="#313071" transform="translate(135,175)"/>
<path d="M0 0 C9.10333533 -0.21511641 16.2942753 0.15998948 23.13671875 6.6015625 C25.49127834 9.03787763 26.54806624 10.81610135 27.13671875 14.1640625 C26.14671875 13.5040625 25.15671875 12.8440625 24.13671875 12.1640625 C24.13671875 11.5040625 24.13671875 10.8440625 24.13671875 10.1640625 C23.20859375 9.761875 23.20859375 9.761875 22.26171875 9.3515625 C20.13671875 8.1640625 20.13671875 8.1640625 18.13671875 5.1640625 C14.12700456 3.01232287 10.61220712 2.91854026 6.11328125 2.93359375 C5.44888031 2.93405197 4.78447937 2.93451019 4.09994507 2.9349823 C2.69974982 2.93799133 1.29955751 2.94583705 -0.10058594 2.95825195 C-2.22473247 2.97644645 -4.34844005 2.97876171 -6.47265625 2.97851562 C-12.70263704 3.00092957 -18.69155525 3.22720437 -24.86328125 4.1640625 C-27.17498932 4.22806328 -29.48831029 4.25040241 -31.80078125 4.2265625 C-32.94417969 4.21753906 -34.08757812 4.20851563 -35.265625 4.19921875 C-36.12285156 4.18761719 -36.98007812 4.17601562 -37.86328125 4.1640625 C-37.86328125 3.8340625 -37.86328125 3.5040625 -37.86328125 3.1640625 C-25.24302645 1.53717108 -12.70916526 0.53972188 0 0 Z " fill="#32336E" transform="translate(456.86328125,286.8359375)"/>
<path d="M0 0 C1.60407328 -0.02708567 3.2082785 -0.04643483 4.8125 -0.0625 C5.70582031 -0.07410156 6.59914063 -0.08570313 7.51953125 -0.09765625 C10 0 10 0 13 1 C14.88263388 1.19180766 16.76571967 1.38025824 18.65087891 1.54541016 C29.76202571 2.53955291 40.25842369 5.06232464 51 8 C51 8.66 51 9.32 51 10 C43.30232994 9.2036893 35.65647079 8.12178733 28 7 C28 6.34 28 5.68 28 5 C26.87980469 4.86722656 25.75960937 4.73445313 24.60546875 4.59765625 C23.13279271 4.41943431 21.66013753 4.24103989 20.1875 4.0625 C19.44951172 3.97548828 18.71152344 3.88847656 17.95117188 3.79882812 C14.83266879 3.41783454 11.98891878 2.99630626 9 2 C7.60560336 1.93334624 6.20830125 1.91461801 4.8125 1.9375 C3.554375 1.958125 2.29625 1.97875 1 2 C0.67 1.34 0.34 0.68 0 0 Z " fill="#3A3E7F" transform="translate(91,294)"/>
<path d="M0 0 C0.33 0 0.66 0 1 0 C1 3.63 1 7.26 1 11 C3.31 10.34 5.62 9.68 8 9 C8 22.53 8 36.06 8 50 C7.67 50 7.34 50 7 50 C5.92349529 37.65864238 5.88971286 25.38100347 6 13 C5.37577148 13.18876709 4.75154297 13.37753418 4.10839844 13.57202148 C3.41262695 13.71325439 2.71685547 13.8544873 2 14 C0.265625 12.84765625 0.265625 12.84765625 -1 11 C-1.328125 8.80859375 -1.328125 8.80859375 -1.25 6.4375 C-1.23453125 5.65246094 -1.2190625 4.86742187 -1.203125 4.05859375 C-1 2 -1 2 0 0 Z " fill="#363F88" transform="translate(262,155)"/>
<path d="M0 0 C0.99 0.495 0.99 0.495 2 1 C1.938125 2.19625 1.87625 3.3925 1.8125 4.625 C1.7905348 8.75445669 2.9412972 11.3972701 5 15 C5 15.66 5 16.32 5 17 C5.94875 16.95875 6.8975 16.9175 7.875 16.875 C11 17 11 17 13 19 C16.45184202 20.39717415 19.56830321 21.08715825 23.25 21.375 C27 22 27 22 28.5 24.0625 C28.665 24.701875 28.83 25.34125 29 26 C30.98 26 32.96 26 35 26 C34.67 26.66 34.34 27.32 34 28 C28.37198541 27.37799572 23.29701008 25.98890331 17.9375 24.1875 C17.16083984 23.93935547 16.38417969 23.69121094 15.58398438 23.43554688 C9.64730949 21.46000646 4.46796704 19.44661174 1.125 13.875 C-0.55256847 9.37205305 -0.2570649 4.73189831 0 0 Z " fill="#2D2E67" transform="translate(93,256)"/>
<path d="M0 0 C1.12277344 0.13277344 2.24554688 0.26554687 3.40234375 0.40234375 C4.12421875 0.48750244 4.84609375 0.57266113 5.58984375 0.66040039 C7.15630797 0.84529399 8.72271428 1.03067898 10.2890625 1.21655273 C14.35674936 1.69733356 18.42454534 2.15164116 22.5 2.5625 C26 3 26 3 27 4 C33.77517927 5.62705994 40.62665248 6.31171128 47.56640625 6.75390625 C50 7 50 7 52 8 C52 8.66 52 9.32 52 10 C40.05753509 8.72388025 28.26332403 6.96242114 16.4375 4.875 C14.82885 4.5946274 13.22012622 4.31467778 11.61132812 4.03515625 C7.74002278 3.36161352 3.8697426 2.68246145 0 2 C0 1.34 0 0.68 0 0 Z " fill="#2F2F69" transform="translate(158,344)"/>
<path d="M0 0 C-0.99 0.33 -1.98 0.66 -3 1 C-3 1.66 -3 2.32 -3 3 C-9.63953969 4.36696405 -16.26202343 5.29625578 -23 6 C-23 6.66 -23 7.32 -23 8 C-23.58007812 8.03738281 -24.16015625 8.07476562 -24.7578125 8.11328125 C-29.91748739 8.54751132 -33.35633995 9.62876934 -38 12 C-40.66500575 12.50910441 -43.29308067 12.73804006 -46 13 C-47.34084736 13.30169066 -48.6806062 13.61517681 -50 14 C-50 13.34 -50 12.68 -50 12 C-45.68190626 10.76907116 -41.36260661 9.54248793 -37.04223633 8.31958008 C-35.57869785 7.90469985 -34.11547051 7.48872014 -32.65258789 7.0715332 C-6.98332175 -0.24618898 -6.98332175 -0.24618898 0 0 Z " fill="#33366D" transform="translate(382,297)"/>
<path d="M0 0 C3 1 3 1 4.2109375 2.640625 C5.28106717 5.84041867 4.95945008 8.40549916 4.625 11.75 C4.45871094 13.50570313 4.45871094 13.50570313 4.2890625 15.296875 C4.14597656 16.63492187 4.14597656 16.63492187 4 18 C0.81486234 19.01438375 -1.39713244 18.9476823 -4.66015625 18.29296875 C-5.53607422 18.11830078 -6.41199219 17.94363281 -7.31445312 17.76367188 C-8.67473633 17.4784668 -8.67473633 17.4784668 -10.0625 17.1875 C-10.97322266 17.00896484 -11.88394531 16.83042969 -12.82226562 16.64648438 C-19.60799754 15.26133497 -19.60799754 15.26133497 -23 13 C-14.58432901 13.5762081 -6.32051741 14.61772049 2 16 C1.91284983 14.06166004 1.80467036 12.1242571 1.6875 10.1875 C1.62949219 9.10855469 1.57148438 8.02960938 1.51171875 6.91796875 C0.96931493 3.82502483 0.44710376 2.86977097 -2 1 C-1.34 0.67 -0.68 0.34 0 0 Z " fill="#2D2B63" transform="translate(241,342)"/>
<path d="M0 0 C3.02419525 0.58803797 6.01758453 1.22678118 9 2 C9 2.66 9 3.32 9 4 C9.804375 4.061875 10.60875 4.12375 11.4375 4.1875 C17.26737563 5.51712076 22.06209932 8.70806622 27 12 C28.13917218 15.41751653 28.11338481 18.03487937 28.09765625 21.63671875 C28.09443359 22.93544922 28.09121094 24.23417969 28.08789062 25.57226562 C28.07953531 26.94401108 28.07107037 28.31575587 28.0625 29.6875 C28.05748335 31.07096195 28.05292073 32.45442563 28.04882812 33.83789062 C28.03702529 37.22530395 28.02056019 40.61263033 28 44 C27.67 44 27.34 44 27 44 C27 35.09 27 26.18 27 17 C26.34 17 25.68 17 25 17 C24.77779785 16.40219727 24.5555957 15.80439453 24.32666016 15.18847656 C22.57746972 12.30298833 20.77236183 11.50031477 17.7734375 9.984375 C16.7421875 9.45585937 15.7109375 8.92734375 14.6484375 8.3828125 C13.02808594 7.57457031 13.02808594 7.57457031 11.375 6.75 C10.28703125 6.19570312 9.1990625 5.64140625 8.078125 5.0703125 C5.39055855 3.70295413 2.69793593 2.34675083 0 1 C0 0.67 0 0.34 0 0 Z " fill="#383979" transform="translate(167,192)"/>
<path d="M0 0 C0.66 0.33 1.32 0.66 2 1 C0.68 2.65 -0.64 4.3 -2 6 C-0.68 6.33 0.64 6.66 2 7 C2 7.66 2 8.32 2 9 C1.34 9.66 0.68 10.32 0 11 C-0.69748583 12.31747324 -1.36959957 13.64914193 -2 15 C-2 14.34 -2 13.68 -2 13 C-2.598125 13.33 -3.19625 13.66 -3.8125 14 C-6 15 -6 15 -9 15 C-9.49050582 11.87302539 -9.70180719 9.10354734 -9 6 C-6.61460487 3.71066105 -3.9679489 2.40554028 -1 1 C-0.67 0.67 -0.34 0.34 0 0 Z " fill="#E5EBF8" transform="translate(272,151)"/>
<path d="M0 0 C0.33 0 0.66 0 1 0 C1.74096976 4.05495223 2.47103776 8.11170262 3.19116211 12.17041016 C3.43753734 13.55017623 3.68685878 14.92941966 3.93920898 16.30810547 C4.30190066 18.29253687 4.65304659 20.27906749 5.00390625 22.265625 C5.21861572 23.45961914 5.4333252 24.65361328 5.65454102 25.88378906 C5.9654598 28.6884303 5.93342689 30.37846065 5 33 C3 27.25 3 27.25 3 25 C2.34 25 1.68 25 1 25 C1.20625 25.763125 1.4125 26.52625 1.625 27.3125 C2 30 2 30 0 33 C0 22.11 0 11.22 0 0 Z " fill="#3F4682" transform="translate(219,173)"/>
<path d="M0 0 C-3.43929851 2.03938832 -6.49951256 2.45308028 -10.453125 2.8515625 C-11.71253906 2.98046875 -12.97195313 3.109375 -14.26953125 3.2421875 C-15.58308594 3.36851562 -16.89664062 3.49484375 -18.25 3.625 C-20.19712891 3.82609375 -20.19712891 3.82609375 -22.18359375 4.03125 C-28.4834163 4.66059007 -34.66862366 5.17676431 -41 5 C-40 3 -40 3 -38.26953125 2.40234375 C-25.76127855 0.03591756 -12.708331 -0.10531766 0 0 Z " fill="#31326D" transform="translate(408,337)"/>
<path d="M0 0 C0 0.33 0 0.66 0 1 C-5.15815649 2.0040133 -10.31765705 3.00069218 -15.47851562 3.99072266 C-17.23248108 4.32824774 -18.98606868 4.66774274 -20.73925781 5.00927734 C-23.2652975 5.50100925 -25.79262971 5.98554462 -28.3203125 6.46875 C-29.09867462 6.62186646 -29.87703674 6.77498291 -30.6789856 6.93273926 C-34.85092552 7.72250835 -38.7303963 8.16627108 -43 8 C-39.78583004 5.85722003 -38.07556278 5.56841753 -34.3125 5.0625 C-30.61974933 4.50393267 -27.31783428 3.88785555 -23.875 2.4375 C-16.38380297 -0.62708061 -7.96295696 -0.15248215 0 0 Z " fill="#2D2F69" transform="translate(299,352)"/>
<path d="M0 0 C-1.875 4.75 -1.875 4.75 -3 7 C-3.7425 7.12375 -4.485 7.2475 -5.25 7.375 C-9.47990618 8.33634231 -11.99528321 10.99528321 -15 14 C-17.02668463 15.47779087 -19.07230196 16.92577086 -21.125 18.3671875 C-23.76971938 20.67029729 -24.87598875 22.64083665 -25.1953125 26.140625 C-25.17210937 26.83671875 -25.14890625 27.5328125 -25.125 28.25 C-25.08375 29.4875 -25.0425 30.725 -25 32 C-27.53604144 28.19593784 -27.60198813 26.51491096 -27 22 C-24.01364506 16.86755729 -19.13183008 13.34179581 -14.44921875 9.84375 C-10.90017251 7.17205969 -7.49308666 4.32997914 -4.06640625 1.50390625 C-2 0 -2 0 0 0 Z " fill="#323269" transform="translate(282,296)"/>
<path d="M0 0 C7.04641993 0.41037389 12.71063964 3.41199474 19 6.4375 C28.24493551 10.90850538 28.24493551 10.90850538 38 14 C38 14.99 38 15.98 38 17 C30.2205232 14.61971232 22.98820572 11.3799842 15.625 7.9375 C14.45066406 7.39544922 13.27632812 6.85339844 12.06640625 6.29492188 C3.41730724 2.27820482 3.41730724 2.27820482 0 0 Z " fill="#2D2D5A" transform="translate(201,312)"/>
<path d="M0 0 C2.62594784 0.1136515 5.25011547 0.24039054 7.875 0.375 C8.62136719 0.4059375 9.36773437 0.436875 10.13671875 0.46875 C15.7734375 0.7734375 15.7734375 0.7734375 18 3 C12.39 3 6.78 3 1 3 C0.896875 4.60875 0.79375 6.2175 0.6875 7.875 C0.51171875 10.6171875 0.51171875 10.6171875 0 13 C-0.99 13.66 -1.98 14.32 -3 15 C-2.88529863 13.24929483 -2.75780972 11.49942464 -2.625 9.75 C-2.55539063 8.77546875 -2.48578125 7.8009375 -2.4140625 6.796875 C-2.01534751 4.10366811 -1.36492937 2.33036721 0 0 Z " fill="#384284" transform="translate(233,149)"/>
<path d="M0 0 C6.9119349 0.90946512 13.82765114 2.71471754 20 6 C19.34 6 18.68 6 18 6 C18 6.66 18 7.32 18 8 C19.134375 8.12375 20.26875 8.2475 21.4375 8.375 C22.613125 8.58125 23.78875 8.7875 25 9 C25.33 9.66 25.66 10.32 26 11 C11.66274337 7.9600704 11.66274337 7.9600704 6 5 C5.67 4.34 5.34 3.68 5 3 C3.35636866 2.27840576 1.68949614 1.60648579 0 1 C0 0.67 0 0.34 0 0 Z " fill="#363A87" transform="translate(184,303)"/>
<path d="M0 0 C0.99 0.33 1.98 0.66 3 1 C2.46109131 1.28198242 1.92218262 1.56396484 1.36694336 1.85449219 C-1.11024481 3.15164958 -3.58637685 4.45081084 -6.0625 5.75 C-6.91005859 6.1934375 -7.75761719 6.636875 -8.63085938 7.09375 C-17.3573293 11.28076373 -17.3573293 11.28076373 -25 17 C-25.33 16.01 -25.66 15.02 -26 14 C-25.01 13.67 -24.02 13.34 -23 13 C-23 12.34 -23 11.68 -23 11 C-22.39671875 10.75765625 -21.7934375 10.5153125 -21.171875 10.265625 C-16.70093996 8.39071676 -13.15166283 6.83680693 -10 3 C-9.01 3.33 -8.02 3.66 -7 4 C-7 3.34 -7 2.68 -7 2 C-6.030625 1.855625 -5.06125 1.71125 -4.0625 1.5625 C-1.13513227 1.32437659 -1.13513227 1.32437659 0 0 Z " fill="#383671" transform="translate(332,192)"/>
<path d="M0 0 C0.33 0 0.66 0 1 0 C1 11.55 1 23.1 1 35 C0.67 35 0.34 35 0 35 C-0.33 30.71 -0.66 26.42 -1 22 C-1.66 24.31 -2.32 26.62 -3 29 C-4.1852306 25.47015434 -3.83595405 22.78324223 -3.22265625 19.140625 C-3.03896484 18.02558594 -2.85527344 16.91054687 -2.66601562 15.76171875 C-2.46685547 14.60285156 -2.26769531 13.44398438 -2.0625 12.25 C-1.86720703 11.07566406 -1.67191406 9.90132812 -1.47070312 8.69140625 C-0.98763371 5.79298975 -0.49714131 2.89603033 0 0 Z " fill="#4C5177" transform="translate(240,170)"/>
<path d="M0 0 C0.66 0.33 1.32 0.66 2 1 C0.49575148 4.00849705 -1.99650263 4.49825131 -5 6 C-10.26988765 9.14894527 -10.26988765 9.14894527 -15 13 C-15.15806531 14.92478813 -15.251135 16.8549921 -15.31640625 18.78515625 C-15.35830078 19.95498047 -15.40019531 21.12480469 -15.44335938 22.33007812 C-15.50233398 24.17762695 -15.50233398 24.17762695 -15.5625 26.0625 C-15.60568359 27.29806641 -15.64886719 28.53363281 -15.69335938 29.80664062 C-15.79984198 32.87097335 -15.90185424 35.93539073 -16 39 C-16.99 38.67 -17.98 38.34 -19 38 C-18.67 37.34 -18.34 36.68 -18 36 C-17.90597331 34.24538178 -17.86819364 32.48758239 -17.859375 30.73046875 C-17.84003906 29.67666016 -17.82070312 28.62285156 -17.80078125 27.53710938 C-17.76710748 25.31593565 -17.74871181 23.09447429 -17.74609375 20.87304688 C-17.5587089 12.78098007 -17.5587089 12.78098007 -14.83984375 8.98046875 C-11.87583012 6.9134056 -8.94105897 4.93606643 -5.8125 3.125 C-4.76707031 2.50882813 -3.72164062 1.89265625 -2.64453125 1.2578125 C-1.77183594 0.84273437 -0.89914063 0.42765625 0 0 Z " fill="#2C2454" transform="translate(148,153)"/>
<path d="M0 0 C2 3 2 3 1.5625 5.5625 C1.376875 6.366875 1.19125 7.17125 1 8 C1.33 8.66 1.66 9.32 2 10 C2.07181821 12.71760108 2.09299506 15.40859388 2.0625 18.125 C2.05798828 18.87910156 2.05347656 19.63320312 2.04882812 20.41015625 C2.03703499 22.27347127 2.01909942 24.13674555 2 26 C1.01 26.33 0.02 26.66 -1 27 C-1.02886537 22.68751391 -1.04675255 18.37505238 -1.0625 14.0625 C-1.07087891 12.83080078 -1.07925781 11.59910156 -1.08789062 10.33007812 C-1.09111328 9.16025391 -1.09433594 7.99042969 -1.09765625 6.78515625 C-1.10289307 5.70113525 -1.10812988 4.61711426 -1.11352539 3.50024414 C-1 1 -1 1 0 0 Z " fill="#403A84" transform="translate(133,165)"/>
<path d="M0 0 C0.66 0.33 1.32 0.66 2 1 C-1.72455161 5.46946194 -5.327482 7.17984748 -10.79296875 9.10546875 C-13.1562303 9.89641986 -13.1562303 9.89641986 -15 12 C-15.99 12 -16.98 12 -18 12 C-18 12.66 -18 13.32 -18 14 C-19.4317616 14.69937202 -20.87067032 15.38412718 -22.3125 16.0625 C-23.11300781 16.44535156 -23.91351563 16.82820313 -24.73828125 17.22265625 C-27 18 -27 18 -30 17 C-29.19780029 16.5560791 -28.39560059 16.1121582 -27.5690918 15.65478516 C-24.58853943 14.00460902 -21.60863125 12.35328132 -18.62915039 10.70117188 C-17.34034381 9.98684276 -16.05128338 9.27297143 -14.76196289 8.55957031 C-12.9070423 7.53310944 -11.05304567 6.50499696 -9.19921875 5.4765625 C-7.52605591 4.549646 -7.52605591 4.549646 -5.8190918 3.60400391 C-3.83603204 2.47568464 -1.89839352 1.26559568 0 0 Z " fill="#36366B" transform="translate(180,135)"/>
<path d="M0 0 C0 0.66 0 1.32 0 2 C-1.39025391 2.19916016 -1.39025391 2.19916016 -2.80859375 2.40234375 C-4.00613281 2.57894531 -5.20367187 2.75554687 -6.4375 2.9375 C-7.63246094 3.11152344 -8.82742188 3.28554688 -10.05859375 3.46484375 C-12.87955676 3.68985213 -12.87955676 3.68985213 -14 5 C-15.49543465 5.18692933 -16.99721786 5.3238637 -18.5 5.4375 C-22.85558215 5.81244251 -26.88582915 6.61035121 -31.08984375 7.79296875 C-33 8 -33 8 -36 6 C-31.64627748 5.18510814 -27.29194663 4.37351289 -22.9375 3.5625 C-21.70837891 3.33240234 -20.47925781 3.10230469 -19.21289062 2.86523438 C-18.01728516 2.64287109 -16.82167969 2.42050781 -15.58984375 2.19140625 C-13.94810181 1.88505249 -13.94810181 1.88505249 -12.27319336 1.57250977 C-3.28272921 0 -3.28272921 0 0 0 Z " fill="#343567" transform="translate(418,290)"/>
<path d="M0 0 C0.99 0.33 1.98 0.66 3 1 C-0.26513191 2.84362943 -3.53798562 4.67309479 -6.8125 6.5 C-7.74126953 7.02464844 -8.67003906 7.54929688 -9.62695312 8.08984375 C-10.51962891 8.58613281 -11.41230469 9.08242187 -12.33203125 9.59375 C-13.56530151 10.28500977 -13.56530151 10.28500977 -14.82348633 10.99023438 C-17 12 -17 12 -20 12 C-19.4375 9.625 -19.4375 9.625 -18 7 C-14.75 5.8125 -14.75 5.8125 -11 5 C-7.75975594 4.02792678 -5.18275391 3.11475246 -2.3125 1.3125 C-1.549375 0.879375 -0.78625 0.44625 0 0 Z " fill="#32306D" transform="translate(355,180)"/>
<path d="M0 0 C-0.99 0.33 -1.98 0.66 -3 1 C-4.20882096 3.00016466 -4.20882096 3.00016466 -5 5 C-6.65 5 -8.3 5 -10 5 C-10.144375 5.78375 -10.28875 6.5675 -10.4375 7.375 C-11 10 -11 10 -12 12 C-14.97 11.505 -14.97 11.505 -18 11 C-17.67 10.01 -17.34 9.02 -17 8 C-15.3364521 7.32558869 -13.66933058 6.6599679 -12 6 C-10.64567325 4.68799596 -9.31266518 3.35368596 -8 2 C-3.515625 -1.171875 -3.515625 -1.171875 0 0 Z " fill="#393C8B" transform="translate(299,288)"/>
<path d="M0 0 C0.99 0 1.98 0 3 0 C0.93310242 4.8816174 -2.34847705 6.734284 -7 9 C-13.23452306 11.18264272 -19.4581962 11.24582979 -26 11 C-26 10.67 -26 10.34 -26 10 C-25.40985107 9.89453857 -24.81970215 9.78907715 -24.21166992 9.68041992 C-21.53457415 9.19494442 -18.86117709 8.69144873 -16.1875 8.1875 C-15.25873047 8.02185547 -14.32996094 7.85621094 -13.37304688 7.68554688 C-12.48037109 7.51474609 -11.58769531 7.34394531 -10.66796875 7.16796875 C-9.84578857 7.01610107 -9.0236084 6.8642334 -8.17651367 6.70776367 C-5.71109736 5.90605398 -4.7812777 4.82115937 -3 3 C-2.01 3 -1.02 3 0 3 C0 2.01 0 1.02 0 0 Z " fill="#36346C" transform="translate(479,324)"/>
<path d="M0 0 C3 2.0625 3 2.0625 5 4 C4.01 4.495 4.01 4.495 3 5 C2.29875 4.525625 1.5975 4.05125 0.875 3.5625 C-3.01297037 1.44947262 -5.61686741 1.77712885 -10 2 C-10 2.66 -10 3.32 -10 4 C-11.6210103 4.69685498 -13.24696066 5.38222861 -14.875 6.0625 C-15.77992188 6.44535156 -16.68484375 6.82820313 -17.6171875 7.22265625 C-20 8 -20 8 -22 7 C-19.84716701 5.61819568 -17.6822786 4.27136213 -15.5 2.9375 C-14.89929688 2.54755859 -14.29859375 2.15761719 -13.6796875 1.75585938 C-8.6957484 -1.23980615 -5.66473981 -1.33287995 0 0 Z " fill="#333569" transform="translate(256,97)"/>
<path d="M0 0 C0.625 1.875 0.625 1.875 1 4 C0.34 4.66 -0.32 5.32 -1 6 C-1.99 6 -2.98 6 -4 6 C-3.85923685 7.9587043 -3.7122324 9.91696093 -3.5625 11.875 C-3.48128906 12.96554687 -3.40007812 14.05609375 -3.31640625 15.1796875 C-3.16998297 17.94728971 -3.16998297 17.94728971 -2 20 C-3.32 20 -4.64 20 -6 20 C-6.92017937 6.4529148 -6.92017937 6.4529148 -4.6640625 2.890625 C-3 1.5625 -3 1.5625 0 0 Z " fill="#323475" transform="translate(261,339)"/>
<path d="M0 0 C18.2700565 -0.70169492 18.2700565 -0.70169492 25.06640625 4.6171875 C28.20417694 7.5711292 30.23793551 9.66575821 31 14 C30.01 13.34 29.02 12.68 28 12 C28 11.34 28 10.68 28 10 C27.071875 9.5978125 27.071875 9.5978125 26.125 9.1875 C24 8 24 8 22 5 C15.11805714 1.79208241 7.4729915 1.37236556 0 1 C0 0.67 0 0.34 0 0 Z " fill="#302F63" transform="translate(453,287)"/>
<path d="M0 0 C0.33 0 0.66 0 1 0 C1.33 5.94 1.66 11.88 2 18 C0.35 18 -1.3 18 -3 18 C-3.20846282 12.89266083 -2.55827416 8.85814886 -1 4 C-0.65864073 2.66869885 -0.32074044 1.33641852 0 0 Z " fill="#373F84" transform="translate(239,188)"/>
<path d="M0 0 C0 13.53 0 27.06 0 41 C-0.33 41 -0.66 41 -1 41 C-1 28.46 -1 15.92 -1 3 C-1.99 3 -2.98 3 -4 3 C-4 2.34 -4 1.68 -4 1 C-2 0 -2 0 0 0 Z " fill="#3C427D" transform="translate(270,164)"/>
<path d="M0 0 C3.18814591 0.11100975 6.37522876 0.24136179 9.5625 0.375 C10.45775391 0.4059375 11.35300781 0.436875 12.27539062 0.46875 C17.50725745 0.69872217 22.03344876 1.32404444 27 3 C27 3.33 27 3.66 27 4 C25.58297487 3.85769192 24.1663904 3.71099254 22.75 3.5625 C21.56664062 3.44068359 21.56664062 3.44068359 20.359375 3.31640625 C18.17635361 3.02365007 16.1226818 2.57935581 14 2 C13.67 2.66 13.34 3.32 13 4 C11.39431334 3.71682074 9.79047953 3.42312209 8.1875 3.125 C7.29417969 2.96257812 6.40085938 2.80015625 5.48046875 2.6328125 C3 2 3 2 0 0 Z " fill="#363A88" transform="translate(144,342)"/>
<path d="M0 0 C-2.77079887 3.80984844 -6.62868145 4.06840752 -11 5 C-11 5.66 -11 6.32 -11 7 C-12.98 7 -14.96 7 -17 7 C-14.53113696 4.1641438 -11.9005012 2.80399248 -8.5 1.25 C-7.5409375 0.80140625 -6.581875 0.3528125 -5.59375 -0.109375 C-3 -1 -3 -1 0 0 Z " fill="#3E417C" transform="translate(279,333)"/>
<path d="M0 0 C-0.66 0.66 -1.32 1.32 -2 2 C-2.99 2 -3.98 2 -5 2 C-5 2.66 -5 3.32 -5 4 C-6.03060547 4.48919922 -6.03060547 4.48919922 -7.08203125 4.98828125 C-7.98308594 5.42527344 -8.88414062 5.86226562 -9.8125 6.3125 C-10.70582031 6.74175781 -11.59914062 7.17101562 -12.51953125 7.61328125 C-14.78931933 8.88221789 -16.29248171 10.06556898 -18 12 C-18 11.34 -18 10.68 -18 10 C-18.66 9.67 -19.32 9.34 -20 9 C-13.375 5 -13.375 5 -10 5 C-9.67 4.01 -9.34 3.02 -9 2 C-3.69230769 -1.23076923 -3.69230769 -1.23076923 0 0 Z " fill="#363C83" transform="translate(159,151)"/>
<path d="M0 0 C3.69876091 1.37287342 6.9514476 3.06355453 10.3125 5.125 C11.19550781 5.66382812 12.07851563 6.20265625 12.98828125 6.7578125 C13.65214844 7.16773437 14.31601562 7.57765625 15 8 C14.67 8.66 14.34 9.32 14 10 C12.02 9.34 10.04 8.68 8 8 C8 7.34 8 6.68 8 6 C6.68 6 5.36 6 4 6 C1.75 4.125 1.75 4.125 0 2 C0 1.34 0 0.68 0 0 Z " fill="#373D84" transform="translate(273,110)"/>
<path d="M0 0 C1.45792884 -0.05399736 2.91642712 -0.09279177 4.375 -0.125 C5.18710937 -0.14820313 5.99921875 -0.17140625 6.8359375 -0.1953125 C9 0 9 0 11 2 C7.14243493 4.15305957 4.44870215 5.39253254 0 5 C0 3.35 0 1.7 0 0 Z " fill="#3B3778" transform="translate(257,324)"/>
<path d="M0 0 C0.33 0.99 0.66 1.98 1 3 C-0.37020379 4.96966795 -1.54992888 5.88185633 -3.875 6.4921875 C-9.49175412 7.33883058 -9.49175412 7.33883058 -13 5 C-8.71 3.35 -4.42 1.7 0 0 Z " fill="#333870" transform="translate(329,310)"/>
<path d="M0 0 C2.37531394 -0.0543965 4.74935883 -0.09385864 7.125 -0.125 C7.79015625 -0.14175781 8.4553125 -0.15851563 9.140625 -0.17578125 C13.49516056 -0.21847278 16.95600114 0.40003783 21 2 C21 2.33 21 2.66 21 3 C19.02090602 3.02686553 17.04171029 3.04633375 15.0625 3.0625 C13.96035156 3.07410156 12.85820313 3.08570313 11.72265625 3.09765625 C9 3 9 3 8 2 C6.65252916 1.76924918 5.29622435 1.58846937 3.9375 1.4375 C2.638125 1.293125 1.33875 1.14875 0 1 C0 0.67 0 0.34 0 0 Z " fill="#343C87" transform="translate(47,289)"/>
<path d="M0 0 C-0.78246094 0.42152344 -1.56492187 0.84304688 -2.37109375 1.27734375 C-3.38300781 1.82519531 -4.39492188 2.37304688 -5.4375 2.9375 C-6.44683594 3.48277344 -7.45617187 4.02804687 -8.49609375 4.58984375 C-10.86670493 5.77699468 -10.86670493 5.77699468 -12 7 C-13.66617115 7.04063832 -15.33388095 7.042721 -17 7 C-14.45543849 4.03134491 -11.51005335 2.6380249 -8 1 C-8 0.67 -8 0.34 -8 0 C-2.25 -1.125 -2.25 -1.125 0 0 Z " fill="#383C83" transform="translate(354,259)"/>
<path d="M0 0 C0.598125 0.20625 1.19625 0.4125 1.8125 0.625 C1.8125 1.285 1.8125 1.945 1.8125 2.625 C3.235625 2.74875 3.235625 2.74875 4.6875 2.875 C5.71875 3.1225 6.75 3.37 7.8125 3.625 C9.0078125 5.671875 9.0078125 5.671875 9.8125 7.625 C4.57977367 5.98541242 -0.33946636 4.23547965 -5.1875 1.625 C-2.1875 -0.375 -2.1875 -0.375 0 0 Z " fill="#363C83" transform="translate(215.1875,313.375)"/>
<path d="M0 0 C0.66 0.33 1.32 0.66 2 1 C0.48616002 4.02767995 -1.96164064 4.5074726 -5 6 C-8.35928945 7.95749951 -11.68184176 9.97369388 -15 12 C-15 11.01 -15 10.02 -15 9 C-12.56573663 7.25870211 -10.20464906 5.74224225 -7.625 4.25 C-6.92632812 3.82589844 -6.22765625 3.40179688 -5.5078125 2.96484375 C-3.71233921 1.90482394 -1.8590257 0.9441344 0 0 Z " fill="#323163" transform="translate(148,153)"/>
<path d="M0 0 C5.7809725 0.63065155 11.3443706 1.65155132 17 3 C13.31599416 4.23104155 10.08525024 3.90767252 6.25 3.5625 C5.07953125 3.46066406 3.9090625 3.35882813 2.703125 3.25390625 C1.36507812 3.12822266 1.36507812 3.12822266 0 3 C0 2.01 0 1.02 0 0 Z " fill="#333978" transform="translate(210,352)"/>
<path d="M0 0 C-2.36386846 3.25031913 -5.25696304 3.82258019 -8.96484375 4.765625 C-11.23267118 5.02679515 -12.83560469 4.67788667 -15 4 C-13.06767179 3.13419713 -11.12892806 2.28270059 -9.1875 1.4375 C-8.10855469 0.96183594 -7.02960938 0.48617187 -5.91796875 -0.00390625 C-3 -1 -3 -1 0 0 Z " fill="#32346C" transform="translate(363,254)"/>
<path d="M0 0 C-1.58272601 3.16545202 -4.39683131 3.71120622 -7.5625 5.125 C-8.76003906 5.66382813 -9.95757812 6.20265625 -11.19140625 6.7578125 C-12.11824219 7.16773438 -13.04507812 7.57765625 -14 8 C-11.94183122 1.82549367 -6.29090595 -0.76718365 0 0 Z " fill="#393B85" transform="translate(359,178)"/>
<path d="M0 0 C5.58507504 2.69319824 10.9400039 5.40473961 16 9 C13 10 13 10 10.625 8.85546875 C9.75875 8.30503906 8.8925 7.75460938 8 7.1875 C7.13375 6.64480469 6.2675 6.10210937 5.375 5.54296875 C3.57552923 4.37390468 1.78548103 3.19032069 0 2 C0 1.34 0 0.68 0 0 Z " fill="#383C86" transform="translate(256,100)"/>
<path d="M0 0 C2.29239061 0.08678763 4.5839807 0.19495273 6.875 0.3125 C8.15117187 0.37050781 9.42734375 0.42851562 10.7421875 0.48828125 C11.81726563 0.65714844 12.89234375 0.82601563 14 1 C14.66 1.99 15.32 2.98 16 4 C10.30948637 3.4618629 4.65134116 2.8599867 -1 2 C-0.67 1.34 -0.34 0.68 0 0 Z " fill="#323986" transform="translate(186,347)"/>
<path d="M0 0 C0.33 0 0.66 0 1 0 C1.4626052 3.9784047 1.36873404 5.52281478 -1.125 8.75 C-4.06762022 11.05292017 -6.40406836 12.08011051 -10 13 C-6.375 8.125 -6.375 8.125 -3 7 C-2.67 6.34 -2.34 5.68 -2 5 C-1.34 5 -0.68 5 0 5 C0 3.35 0 1.7 0 0 Z " fill="#323063" transform="translate(368,167)"/>
<path d="M0 0 C1.65 0.33 3.3 0.66 5 1 C5 1.66 5 2.32 5 3 C4.34 3.66 3.68 4.32 3 5 C2.30251417 6.31747324 1.63040043 7.64914193 1 9 C1 8.34 1 7.68 1 7 C0.01 7.33 -0.98 7.66 -2 8 C-2 6.68 -2 5.36 -2 4 C-1.34 4 -0.68 4 0 4 C0 2.68 0 1.36 0 0 Z " fill="#F1F2F1" transform="translate(269,157)"/>
<path d="M0 0 C0.66 0 1.32 0 2 0 C1 3 1 3 -1 4 C-2.78776459 4.20431595 -4.58064663 4.36530323 -6.375 4.5 C-9.69872256 4.75084699 -12.79013416 5.08724194 -16 6 C-16 5.34 -16 4.68 -16 4 C-11.84348974 3.04862098 -7.71151037 2.11434988 -3.5 1.4375 C-1.06693138 1.25847486 -1.06693138 1.25847486 0 0 Z " fill="#3C3E8C" transform="translate(375,299)"/>
<path d="M0 0 C0.33 0 0.66 0 1 0 C1.36463732 1.74784829 1.7163078 3.49840502 2.0625 5.25 C2.25972656 6.22453125 2.45695313 7.1990625 2.66015625 8.203125 C2.98877625 10.9076298 2.97450646 12.48298902 2 15 C1.34 15.66 0.68 16.32 0 17 C0 11.39 0 5.78 0 0 Z " fill="#515281" transform="translate(219,173)"/>
<path d="M0 0 C3.65564909 0.68761019 6.51867272 2.25449545 9.75 4.0625 C10.73484375 4.61035156 11.7196875 5.15820312 12.734375 5.72265625 C13.48203125 6.14417969 14.2296875 6.56570312 15 7 C11.20980534 8.26339822 9.62477616 7.49719015 6 6 C5.67 5.34 5.34 4.68 5 4 C3.35636866 3.27840576 1.68949614 2.60648579 0 2 C0 1.34 0 0.68 0 0 Z " fill="#303467" transform="translate(332,144)"/>
<path d="M0 0 C0 0.66 0 1.32 0 2 C-5.3212615 3.08318169 -10.63486869 4.152874 -16 5 C-16 4.01 -16 3.02 -16 2 C-14.7934375 2.0309375 -14.7934375 2.0309375 -13.5625 2.0625 C-11.06645115 2.29633621 -11.06645115 2.29633621 -10 1 C-3 0 -3 0 0 0 Z " fill="#353E88" transform="translate(346,308)"/>
<path d="M0 0 C0 0.99 0 1.98 0 3 C-5.25714286 7 -5.25714286 7 -8 7 C-8.33 7.99 -8.66 8.98 -9 10 C-10.65 10.33 -12.3 10.66 -14 11 C-9.85989729 6.45924219 -5.17609824 3.28157862 0 0 Z " fill="#343462" transform="translate(296,285)"/>
<path d="M0 0 C0.625 1.875 0.625 1.875 1 4 C0.34 4.66 -0.32 5.32 -1 6 C-1.25005386 9.04182893 -1.25005386 9.04182893 -1 12 C-0.67 12.33 -0.34 12.66 0 13 C0.04063832 14.66617115 0.042721 16.33388095 0 18 C-2.42581871 15.57418129 -2.96355664 13.92566131 -3.09765625 10.51953125 C-3.08605469 9.62621094 -3.07445313 8.73289062 -3.0625 7.8125 C-3.05347656 6.91144531 -3.04445313 6.01039063 -3.03515625 5.08203125 C-3.02355469 4.39496094 -3.01195313 3.70789063 -3 3 C-2.34 3 -1.68 3 -1 3 C-0.67 2.01 -0.34 1.02 0 0 Z " fill="#32387F" transform="translate(97,252)"/>
<path d="M0 0 C0.185625 0.9590625 0.185625 0.9590625 0.375 1.9375 C0.684375 2.9584375 0.684375 2.9584375 1 4 C1.66 4.33 2.32 4.66 3 5 C2.34 6.32 1.68 7.64 1 9 C-0.32 9 -1.64 9 -3 9 C-2.30058404 5.85262818 -1.23921302 2.97411124 0 0 Z " fill="#363778" transform="translate(242,320)"/>
<path d="M0 0 C0.99 0.33 1.98 0.66 3 1 C-1.43076923 6.78461538 -1.43076923 6.78461538 -4.3125 7.875 C-5.1478125 7.936875 -5.1478125 7.936875 -6 8 C-6.33 7.01 -6.66 6.02 -7 5 C-5.68 5 -4.36 5 -3 5 C-3 4.34 -3 3.68 -3 3 C-2.01 3 -1.02 3 0 3 C0 2.01 0 1.02 0 0 Z " fill="#3D4784" transform="translate(271,148)"/>
<path d="M0 0 C0.66 0 1.32 0 2 0 C2 4.29 2 8.58 2 13 C1.34 12.67 0.68 12.34 0 12 C-0.44921875 10.0390625 -0.44921875 10.0390625 -0.6875 7.625 C-0.77386719 6.83351563 -0.86023438 6.04203125 -0.94921875 5.2265625 C-1 3 -1 3 0 0 Z " fill="#383A88" transform="translate(483,304)"/>
<path d="M0 0 C-0.99 0.33 -1.98 0.66 -3 1 C-3 1.66 -3 2.32 -3 3 C-3.7425 3.144375 -4.485 3.28875 -5.25 3.4375 C-7.52027739 3.90187492 -9.75759479 4.41863569 -12 5 C-12 4.34 -12 3.68 -12 3 C-12.66 2.67 -13.32 2.34 -14 2 C-4.58997722 -0.29612756 -4.58997722 -0.29612756 0 0 Z " fill="#39396C" transform="translate(382,297)"/>
<path d="M0 0 C0.90105469 0.00902344 1.80210937 0.01804687 2.73046875 0.02734375 C3.41753906 0.03894531 4.10460937 0.05054688 4.8125 0.0625 C-3.12027311 4.0625 -3.12027311 4.0625 -8.1875 4.0625 C-8.1875 3.0725 -8.1875 2.0825 -8.1875 1.0625 C-5.17259443 0.05753148 -3.14568308 -0.04085303 0 0 Z " fill="#383C8A" transform="translate(387.1875,296.9375)"/>
<path d="M0 0 C2 2 2 2 2.25 4.75 C1.98998031 8.13025595 1.20288037 10.84243904 0 14 C-0.66 13.67 -1.32 13.34 -2 13 C-1.855625 12.34 -1.71125 11.68 -1.5625 11 C-0.87700084 7.34400449 -0.43824485 3.69377805 0 0 Z " fill="#3A3B88" transform="translate(404,256)"/>
<path d="M0 0 C2.7929477 2.7929477 2.98118782 4.64256854 3.1875 8.5625 C3 12 3 12 1 14 C0.67 9.38 0.34 4.76 0 0 Z " fill="#3D4476" transform="translate(228,166)"/>
<path d="M0 0 C0.99 0 1.98 0 3 0 C2.67 1.32 2.34 2.64 2 4 C0.68 4 -0.64 4 -2 4 C-2 4.66 -2 5.32 -2 6 C-3.32 6 -4.64 6 -6 6 C-6 5.34 -6 4.68 -6 4 C-5.38125 3.71125 -4.7625 3.4225 -4.125 3.125 C-1.86674235 2.06279958 -1.86674235 2.06279958 0 0 Z " fill="#373C9F" transform="translate(285,330)"/>
<path d="M0 0 C-3.79541663 2.21399303 -7.75629421 3.00980198 -12 4 C-12 3.01 -12 2.02 -12 1 C-10.56496445 0.63597631 -9.12683494 0.28413409 -7.6875 -0.0625 C-6.88699219 -0.25972656 -6.08648437 -0.45695312 -5.26171875 -0.66015625 C-3 -1 -3 -1 0 0 Z " fill="#323163" transform="translate(393,278)"/>
<path d="M0 0 C4.85963179 0.60745397 8.7405518 2.72758967 13 5 C13 5.66 13 6.32 13 7 C8.1725201 5.58707905 4.2837641 3.57025846 0 1 C0 0.67 0 0.34 0 0 Z " fill="#2F2F65" transform="translate(154,185)"/>
<path d="M0 0 C0 0.66 0 1.32 0 2 C-4.67201205 3.20568053 -9.21496292 3.09382426 -14 3 C-13.67 2.34 -13.34 1.68 -13 1 C-8.71230214 -0.29930238 -4.43489655 -0.07516774 0 0 Z " fill="#2F3483" transform="translate(304,350)"/>
<path d="M0 0 C-0.33 1.32 -0.66 2.64 -1 4 C-2.98 4.33 -4.96 4.66 -7 5 C-7 5.66 -7 6.32 -7 7 C-7.66 7 -8.32 7 -9 7 C-7.4576387 2.93377477 -4.5679954 0 0 0 Z " fill="#2C2E59" transform="translate(28,289)"/>
<path d="M0 0 C2.64 0 5.28 0 8 0 C8 0.66 8 1.32 8 2 C9.98 2 11.96 2 14 2 C13.67 2.66 13.34 3.32 13 4 C11.39431334 3.71682074 9.79047953 3.42312209 8.1875 3.125 C7.29417969 2.96257812 6.40085938 2.80015625 5.48046875 2.6328125 C3 2 3 2 0 0 Z " fill="#383A74" transform="translate(144,342)"/>
<path d="M0 0 C0.55429688 0.2165625 1.10859375 0.433125 1.6796875 0.65625 C2.40414062 0.9346875 3.12859375 1.213125 3.875 1.5 C4.95394531 1.91765625 4.95394531 1.91765625 6.0546875 2.34375 C7.97367461 3.10655018 7.97367461 3.10655018 10 3 C10 3.66 10 4.32 10 5 C7.69 5.66 5.38 6.32 3 7 C3 5.35 3 3.7 3 2 C2.01 2 1.02 2 0 2 C0 1.34 0 0.68 0 0 Z " fill="#3C408A" transform="translate(228,336)"/>
<path d="M0 0 C-2.9432656 1.96217707 -5.75978738 3.58240698 -9 5 C-9.99 4.67 -10.98 4.34 -12 4 C-10.56988027 3.13353333 -9.13059381 2.28218171 -7.6875 1.4375 C-6.48673828 0.72400391 -6.48673828 0.72400391 -5.26171875 -0.00390625 C-3 -1 -3 -1 0 0 Z " fill="#333070" transform="translate(300,311)"/>
<path d="M0 0 C6.75 1.625 6.75 1.625 9 5 C8.01 5.495 8.01 5.495 7 6 C3.9375 4.75 3.9375 4.75 1 3 C0.67 2.01 0.34 1.02 0 0 Z " fill="#393B82" transform="translate(468,289)"/>
<path d="M0 0 C0.33 0.66 0.66 1.32 1 2 C-0.62719177 5.25438355 -3.73080811 5.70359632 -7 7 C-7.99 7.33 -8.98 7.66 -10 8 C-8.76736651 4.30209954 -7.79947549 4.0645154 -4.4375 2.3125 C-3.61121094 1.87550781 -2.78492188 1.43851562 -1.93359375 0.98828125 C-1.29550781 0.66214844 -0.65742188 0.33601563 0 0 Z " fill="#303064" transform="translate(308,278)"/>
<path d="M0 0 C0.91007813 0.10183594 1.82015625 0.20367187 2.7578125 0.30859375 C3.45648438 0.39238281 4.15515625 0.47617188 4.875 0.5625 C4.875 1.2225 4.875 1.8825 4.875 2.5625 C0.915 2.5625 -3.045 2.5625 -7.125 2.5625 C-7.125 1.9025 -7.125 1.2425 -7.125 0.5625 C-4.50184968 -0.74907516 -2.89466564 -0.33399988 0 0 Z " fill="#343679" transform="translate(211.125,240.4375)"/>
<path d="M0 0 C0.99 0.495 0.99 0.495 2 1 C2 1.99 2 2.98 2 4 C6.455 4.99 6.455 4.99 11 6 C10.67 6.66 10.34 7.32 10 8 C8.51988629 7.69201674 7.04092675 7.378482 5.5625 7.0625 C4.73878906 6.88847656 3.91507813 6.71445313 3.06640625 6.53515625 C1 6 1 6 0 5 C-0.04063832 3.33382885 -0.042721 1.66611905 0 0 Z " fill="#303068" transform="translate(193,235)"/>
<path d="M0 0 C4.455 0.99 4.455 0.99 9 2 C9 2.99 9 3.98 9 5 C7.68 5 6.36 5 5 5 C5 4.34 5 3.68 5 3 C3.35 3 1.7 3 0 3 C0 2.01 0 1.02 0 0 Z " fill="#383B85" transform="translate(306,130)"/>
<path d="M0 0 C4.38889325 0.66498383 7.9811485 2.18757677 12 4 C11.67 4.66 11.34 5.32 11 6 C9.3501725 5.57781184 7.70516335 5.13675575 6.0625 4.6875 C5.14597656 4.44386719 4.22945312 4.20023437 3.28515625 3.94921875 C2.53105469 3.63597656 1.77695313 3.32273437 1 3 C0.67 2.01 0.34 1.02 0 0 Z " fill="#37386E" transform="translate(210,327)"/>
<path d="M0 0 C1.258125 0.12375 2.51625 0.2475 3.8125 0.375 C4.87404297 0.47941406 4.87404297 0.47941406 5.95703125 0.5859375 C8 1 8 1 11 3 C11 3.66 11 4.32 11 5 C9.53932801 4.54917531 8.08151968 4.08906463 6.625 3.625 C5.81289062 3.36976563 5.00078125 3.11453125 4.1640625 2.8515625 C2 2 2 2 0 0 Z " fill="#343466" transform="translate(190,307)"/>
<path d="M0 0 C0.99 0.33 1.98 0.66 3 1 C3.33 3.31 3.66 5.62 4 8 C-0.875 3.25 -0.875 3.25 -2 1 C-1.34 0.67 -0.68 0.34 0 0 Z " fill="#3E3D79" transform="translate(241,342)"/>
<path d="M0 0 C4.29 0.33 8.58 0.66 13 1 C13 1.33 13 1.66 13 2 C8.33333333 2 3.66666667 2 -1 2 C-0.67 1.34 -0.34 0.68 0 0 Z " fill="#2B2D7E" transform="translate(55,333)"/>
<path d="M0 0 C2.64 0 5.28 0 8 0 C8.33 1.32 8.66 2.64 9 4 C8.4225 3.835 7.845 3.67 7.25 3.5 C4.73335631 2.85537969 4.73335631 2.85537969 1 3 C0.67 2.01 0.34 1.02 0 0 Z " fill="#3F4388" transform="translate(194,322)"/>
<path d="M0 0 C0.99 0.66 1.98 1.32 3 2 C-5.57142857 2.28571429 -5.57142857 2.28571429 -9 0 C-5.88109857 -1.55945072 -3.34501482 -0.64552918 0 0 Z " fill="#31337D" transform="translate(184,315)"/>
<path d="M0 0 C1.98 0.99 1.98 0.99 4 2 C4 2.66 4 3.32 4 4 C4.66 4 5.32 4 6 4 C6.33 4.99 6.66 5.98 7 7 C5.35 6.67 3.7 6.34 2 6 C2 5.01 2 4.02 2 3 C1.34 3 0.68 3 0 3 C0 2.01 0 1.02 0 0 Z " fill="#3A3C88" transform="translate(224,302)"/>
<path d="M0 0 C-3.65333143 2.63379708 -6.48521602 4.46884894 -11 5 C-8.2171527 0.82572905 -5.00061399 -1.66687133 0 0 Z " fill="#383D8C" transform="translate(176,142)"/>
<path d="M0 0 C6.15234375 0.5859375 6.15234375 0.5859375 8 1 C8.33 1.66 8.66 2.32 9 3 C6.36 3 3.72 3 1 3 C0.67 2.01 0.34 1.02 0 0 Z " fill="#373791" transform="translate(232,355)"/>
<path d="M0 0 C2.64 0.66 5.28 1.32 8 2 C8 2.99 8 3.98 8 5 C5.03 4.01 2.06 3.02 -1 2 C-0.67 1.34 -0.34 0.68 0 0 Z " fill="#252257" transform="translate(231,324)"/>
<path d="M0 0 C-2.8125 1.5625 -2.8125 1.5625 -6 3 C-9 2 -9 2 -11 0 C-3.57142857 -1.28571429 -3.57142857 -1.28571429 0 0 Z " fill="#322E6A" transform="translate(277,322)"/>
<path d="M0 0 C4.8 3.44615385 4.8 3.44615385 5.8125 6.25 C5.874375 6.8275 5.93625 7.405 6 8 C4.35 7.67 2.7 7.34 1 7 C1 6.01 1 5.02 1 4 C0.6937566 2.66018514 0.36548445 1.32488113 0 0 Z " fill="#343982" transform="translate(16,318)"/>
<path d="M0 0 C3.35810395 1.38956025 5.18586552 2.82526467 7 6 C7.1875 8.75 7.1875 8.75 7 11 C6.773125 10.484375 6.54625 9.96875 6.3125 9.4375 C4.5024447 6.07596873 2.26003596 3.07088856 0 0 Z " fill="#404089" transform="translate(237,313)"/>
<path d="M0 0 C0.66 0.33 1.32 0.66 2 1 C0.02 2.98 -1.96 4.96 -4 7 C-4.99 6.67 -5.98 6.34 -7 6 C-4.69 4.02 -2.38 2.04 0 0 Z " fill="#3A3F88" transform="translate(275,302)"/>
<path d="M0 0 C4.3177458 0.50797009 8.03302114 1.19682779 12 3 C8.62858491 4.12380503 7.35507997 3.98197462 4 3 C1.6875 1.4375 1.6875 1.4375 0 0 Z " fill="#343469" transform="translate(160,308)"/>
<path d="M0 0 C2.875 -0.1875 2.875 -0.1875 6 0 C6.66 0.99 7.32 1.98 8 3 C5.36 3 2.72 3 0 3 C0 2.01 0 1.02 0 0 Z " fill="#36397F" transform="translate(114,278)"/>
<path d="M0 0 C2.31 0.66 4.62 1.32 7 2 C6.67 3.65 6.34 5.3 6 7 C1.125 2.25 1.125 2.25 0 0 Z " fill="#292B65" transform="translate(187,202)"/>
<path d="M0 0 C0 0.66 0 1.32 0 2 C-2.57213134 3.61949011 -3.67669159 4.04408751 -6.75 3.625 C-7.4925 3.41875 -8.235 3.2125 -9 3 C-3.2 0 -3.2 0 0 0 Z " fill="#37398C" transform="translate(394,274)"/>
<path d="M0 0 C0.33 0.66 0.66 1.32 1 2 C1.66 2 2.32 2 3 2 C3 3.32 3 4.64 3 6 C1.68 5.67 0.36 5.34 -1 5 C-0.67 3.35 -0.34 1.7 0 0 Z " fill="#323DA4" transform="translate(283,144)"/>
</svg>
